<svg width="254" height="204" viewBox="0 0 254 204" fill="none" xmlns="http://www.w3.org/2000/svg">
<path id="Vector" d="M171.725 0C171.428 0 171.149 0.0754628 170.895 0.220351C170.637 0.368258 170.432 0.56748 170.285 0.821035L153.731 29.1166C153.581 29.3701 153.508 29.6448 153.508 29.9376C153.508 30.2304 153.581 30.502 153.731 30.7556L170.285 59.0511C170.432 59.3047 170.637 59.5039 170.895 59.6488C171.149 59.7967 171.428 59.8691 171.725 59.8691H204.835C205.132 59.8691 205.408 59.7967 205.665 59.6488C205.923 59.5039 206.125 59.3047 206.275 59.0511L222.832 30.7556C222.979 30.502 223.055 30.2304 223.055 29.9376C223.055 29.6448 222.979 29.3701 222.832 29.1166L206.275 0.821035C206.125 0.56748 205.923 0.368258 205.665 0.220351C205.408 0.0754628 205.132 0 204.835 0H171.725ZM172.687 3.28414H203.873L219.468 29.9346L203.873 56.588H172.687L157.092 29.9346L172.687 3.28414ZM110.028 14.6518L100.281 31.311L110.028 47.9702H129.526L139.273 31.311L129.526 14.6518H110.028ZM37.6563 41.4834C37.3592 41.4834 37.0835 41.5558 36.8262 41.7037C36.5688 41.8486 36.3636 42.0509 36.2166 42.3044L9.73495 87.561C9.58485 87.8175 9.51133 88.0892 9.51133 88.382C9.51133 88.6778 9.58485 88.9495 9.73495 89.203L36.2166 134.466C36.3636 134.719 36.5688 134.918 36.8262 135.066C37.0835 135.211 37.3592 135.287 37.6563 135.287H90.6226C90.9197 135.287 91.1954 135.211 91.4527 135.066C91.7101 134.918 91.9122 134.719 92.0623 134.466L118.547 89.203C118.694 88.9495 118.771 88.6778 118.771 88.382C118.771 88.0892 118.694 87.8175 118.547 87.561L92.0623 42.3044C91.9122 42.0509 91.7101 41.8516 91.4527 41.7037C91.1954 41.5589 90.9197 41.4834 90.6226 41.4834H37.6563ZM38.6181 44.7675H89.6608L115.184 88.382L89.6608 132.002H38.6181L13.0953 88.382L38.6181 44.7675ZM136.635 55.6976C136.338 55.7006 136.059 55.773 135.802 55.9179C135.545 56.0658 135.343 56.265 135.196 56.5186L125.972 72.2782C125.822 72.5318 125.749 72.8065 125.749 73.0993C125.749 73.3921 125.822 73.6667 125.972 73.9203L135.196 89.6769C135.343 89.9305 135.545 90.1297 135.802 90.2776C136.059 90.4225 136.338 90.498 136.635 90.498H155.076C155.373 90.498 155.649 90.4255 155.906 90.2776C156.167 90.1327 156.369 89.9305 156.516 89.6769L165.736 73.9203C165.883 73.6667 165.957 73.3921 165.957 73.0993C165.957 72.8065 165.883 72.5318 165.736 72.2782L156.516 56.5186C156.369 56.265 156.167 56.0658 155.906 55.9179C155.649 55.773 155.373 55.6976 155.076 55.6976H136.635ZM137.597 58.9817H154.114L162.376 73.0963L154.114 87.2138H137.597L129.336 73.0963L137.597 58.9817ZM187.378 69.7608C187.081 69.7608 186.805 69.8332 186.548 69.9811C186.29 70.126 186.088 70.3253 185.938 70.5788L172.123 94.1926C171.976 94.4462 171.902 94.7209 171.902 95.0137C171.902 95.3064 171.976 95.5811 172.123 95.8347L185.938 119.445C186.088 119.699 186.29 119.898 186.548 120.043C186.805 120.191 187.081 120.263 187.378 120.263H215.011C215.308 120.267 215.587 120.191 215.844 120.046C216.102 119.898 216.304 119.699 216.454 119.445L230.266 95.8347C230.413 95.5811 230.487 95.3064 230.487 95.0137C230.487 94.7209 230.413 94.4462 230.266 94.1926L216.454 70.5788C216.304 70.3253 216.102 70.126 215.841 69.9811C215.584 69.8332 215.308 69.7608 215.011 69.7608H187.378ZM188.343 73.0419H214.049L226.903 95.0137L214.049 116.982H188.343L175.486 95.0137L188.343 73.0419ZM125.225 102.131C124.928 102.131 124.652 102.204 124.395 102.352C124.137 102.497 123.932 102.699 123.785 102.952L104.983 135.087C104.833 135.341 104.759 135.616 104.759 135.908C104.759 136.201 104.833 136.476 104.983 136.729L123.785 168.868C123.932 169.121 124.137 169.32 124.395 169.465C124.652 169.613 124.928 169.686 125.225 169.686H162.832C163.129 169.686 163.408 169.613 163.665 169.465C163.923 169.32 164.125 169.121 164.275 168.868L183.077 136.729C183.224 136.476 183.301 136.201 183.301 135.908C183.301 135.616 183.224 135.341 183.077 135.087L164.275 102.952C164.125 102.699 163.923 102.497 163.665 102.352C163.408 102.204 163.129 102.131 162.832 102.131H125.225ZM126.187 105.415H161.873L179.714 135.908L161.873 166.401H126.187L108.343 135.908L126.187 105.415ZM229.948 113.451L221.925 127.155L229.948 140.859H245.984L254 127.155L245.984 113.451H229.948ZM195.982 134.466C195.685 134.466 195.407 134.538 195.149 134.686C194.892 134.831 194.69 135.033 194.54 135.287L185.319 151.043C185.172 151.297 185.096 151.568 185.096 151.864C185.096 152.157 185.172 152.429 185.319 152.682L194.54 168.439C194.687 168.695 194.892 168.895 195.149 169.043C195.407 169.191 195.685 169.263 195.982 169.263H214.423C214.72 169.263 214.999 169.191 215.256 169.043C215.514 168.895 215.716 168.695 215.866 168.439L225.083 152.682C225.23 152.429 225.304 152.157 225.304 151.864C225.304 151.568 225.23 151.297 225.083 151.043L215.866 135.287C215.716 135.033 215.514 134.831 215.256 134.683C214.996 134.538 214.72 134.466 214.423 134.466H195.982ZM196.941 137.747H213.461L221.723 151.864L213.461 165.979H196.941L188.683 151.864L196.941 137.747ZM9.7472 141.795L0 158.454L9.7472 175.113H29.2416L38.9888 158.454L29.2416 141.795H9.7472ZM66.8673 142.951C66.5701 142.951 66.2944 143.023 66.0371 143.171C65.7798 143.316 65.5746 143.515 65.4275 143.769L51.545 167.494C51.3979 167.751 51.3214 168.022 51.3214 168.315C51.3214 168.611 51.3979 168.883 51.545 169.136L65.4275 192.862C65.5746 193.118 65.7798 193.317 66.0371 193.462C66.2944 193.61 66.5701 193.683 66.8673 193.683H94.6324C94.9295 193.683 95.2052 193.607 95.4625 193.462C95.7198 193.317 95.922 193.115 96.069 192.862L109.958 169.136C110.105 168.883 110.178 168.611 110.178 168.315C110.178 168.022 110.105 167.751 109.958 167.494L96.069 143.769C95.922 143.515 95.7198 143.316 95.4625 143.171C95.2052 143.023 94.9295 142.951 94.6324 142.951H66.8673ZM67.8291 146.232H93.6705L106.591 168.315L93.6705 190.402H67.8291L54.9084 168.315L67.8291 146.232ZM116.204 176.595L108.187 190.296L116.204 204H132.24L140.259 190.296L132.24 176.595H116.204Z" fill="#4D77FF" fill-opacity="0.1"/>
</svg>
