<svg width="32" height="22" viewBox="0 0 32 22" fill="none" xmlns="http://www.w3.org/2000/svg">
<path d="M8.21333 10.0133C10.0267 10.0133 11.4667 10.5467 12.5333 11.6133C13.6356 12.6444 14.1867 14.0489 14.1867 15.8267C14.1867 17.5689 13.6 19.0267 12.4267 20.2C11.2533 21.3378 9.56445 21.9067 7.36 21.9067C5.08445 21.9067 3.34222 21.1422 2.13333 19.6133C0.924445 18.0489 0.32 16.0755 0.32 13.6933C0.32 11.4178 0.853334 9.3911 1.92 7.61333C2.98667 5.79999 4.35556 4.27111 6.02667 3.02666C7.73333 1.74666 9.47556 0.768883 11.2533 0.0933253L12.4267 2.65332C11.1467 3.11555 9.92 3.7911 8.74667 4.67999C7.60889 5.56888 6.66667 6.6 5.92 7.77333C5.20889 8.9111 4.83556 10.0844 4.8 11.2933C4.94222 11.0089 5.31556 10.7244 5.92 10.44C6.56 10.1555 7.32445 10.0133 8.21333 10.0133ZM25.6533 10.0133C27.4667 10.0133 28.9067 10.5467 29.9733 11.6133C31.0756 12.6444 31.6267 14.0489 31.6267 15.8267C31.6267 17.5689 31.04 19.0267 29.8667 20.2C28.6933 21.3378 27.0044 21.9067 24.8 21.9067C22.5244 21.9067 20.7822 21.1422 19.5733 19.6133C18.3644 18.0489 17.76 16.0755 17.76 13.6933C17.76 11.4178 18.2933 9.3911 19.36 7.61333C20.4267 5.79999 21.7956 4.27111 23.4667 3.02666C25.1733 1.74666 26.9156 0.768883 28.6933 0.0933253L29.8667 2.65332C28.5867 3.11555 27.36 3.7911 26.1867 4.67999C25.0489 5.56888 24.1067 6.6 23.36 7.77333C22.6489 8.9111 22.2756 10.0844 22.24 11.2933C22.3822 11.0089 22.7556 10.7244 23.36 10.44C24 10.1555 24.7644 10.0133 25.6533 10.0133Z" fill="#4D77FF"/>
</svg>
