<svg width="24" height="25" viewBox="0 0 24 25" fill="none" xmlns="http://www.w3.org/2000/svg">
<g id="icon/alarm-check">
<path id="Vector" d="M12 21.5C14.1217 21.5 16.1566 20.6571 17.6569 19.1569C19.1571 17.6566 20 15.6217 20 13.5C20 11.3783 19.1571 9.34344 17.6569 7.84315C16.1566 6.34285 14.1217 5.5 12 5.5C9.87827 5.5 7.84344 6.34285 6.34315 7.84315C4.84285 9.34344 4 11.3783 4 13.5C4 15.6217 4.84285 17.6566 6.34315 19.1569C7.84344 20.6571 9.87827 21.5 12 21.5Z" stroke="#FF8E26" stroke-width="1.5" stroke-linecap="round" stroke-linejoin="round"/>
<path id="Vector_2" d="M5 3.5L2 6.5" stroke="#FF8E26" stroke-width="1.5" stroke-linecap="round" stroke-linejoin="round"/>
<path id="Vector_3" d="M22 6.5L19 3.5" stroke="#FF8E26" stroke-width="1.5" stroke-linecap="round" stroke-linejoin="round"/>
<path id="Vector_4" d="M6 19.5L4 21.5" stroke="#FF8E26" stroke-width="1.5" stroke-linecap="round" stroke-linejoin="round"/>
<path id="Vector_5" d="M18 19.5L20 21.5" stroke="#FF8E26" stroke-width="1.5" stroke-linecap="round" stroke-linejoin="round"/>
<path id="Vector_6" d="M9 13.5L11 15.5L15 11.5" stroke="#FF8E26" stroke-width="1.5" stroke-linecap="round" stroke-linejoin="round"/>
</g>
</svg>
