<svg width="24" height="25" viewBox="0 0 24 25" fill="none" xmlns="http://www.w3.org/2000/svg">
<path d="M12 21.5C14.1217 21.5 16.1566 20.6571 17.6569 19.1569C19.1571 17.6566 20 15.6217 20 13.5C20 11.3783 19.1571 9.34344 17.6569 7.84315C16.1566 6.34285 14.1217 5.5 12 5.5C9.87827 5.5 7.84344 6.34285 6.34315 7.84315C4.84285 9.34344 4 11.3783 4 13.5C4 15.6217 4.84285 17.6566 6.34315 19.1569C7.84344 20.6571 9.87827 21.5 12 21.5Z" stroke="#71717A" stroke-width="1.5" stroke-linecap="round" stroke-linejoin="round"/>
<path d="M5 3.5L2 6.5" stroke="#71717A" stroke-width="1.5" stroke-linecap="round" stroke-linejoin="round"/>
<path d="M22 6.5L19 3.5" stroke="#71717A" stroke-width="1.5" stroke-linecap="round" stroke-linejoin="round"/>
<path d="M6 19.5L4 21.5" stroke="#71717A" stroke-width="1.5" stroke-linecap="round" stroke-linejoin="round"/>
<path d="M18 19.5L20 21.5" stroke="#71717A" stroke-width="1.5" stroke-linecap="round" stroke-linejoin="round"/>
<path d="M8.91388 14.01V12.61H15.0879V14.01H8.91388ZM11.2939 10.076H12.7219V16.53H11.2939V10.076Z" fill="#71717A"/>
</svg>
