<svg width="42" height="44" viewBox="0 0 42 44" fill="none" xmlns="http://www.w3.org/2000/svg">
<g id="Icon/calendar-2">
<path id="Vector" d="M12.7427 9.58819C11.871 9.58819 11.1481 8.92278 11.1481 8.12037V2.24912C11.1481 1.44672 11.871 0.781311 12.7427 0.781311C13.6145 0.781311 14.3374 1.44672 14.3374 2.24912V8.12037C14.3374 8.92278 13.6145 9.58819 12.7427 9.58819Z" fill="#FF8E26"/>
<path id="Vector_2" d="M29.7526 9.58819C28.8809 9.58819 28.158 8.92278 28.158 8.12037V2.24912C28.158 1.44672 28.8809 0.781311 29.7526 0.781311C30.6244 0.781311 31.3473 1.44672 31.3473 2.24912V8.12037C31.3473 8.92278 30.6244 9.58819 29.7526 9.58819Z" fill="#FF8E26"/>
<path id="Vector_3" d="M39.3202 17.5925H3.17456C2.30281 17.5925 1.5799 16.9271 1.5799 16.1247C1.5799 15.3223 2.30281 14.6569 3.17456 14.6569H39.3202C40.1919 14.6569 40.9148 15.3223 40.9148 16.1247C40.9148 16.9271 40.1919 17.5925 39.3202 17.5925Z" fill="#FF8E26"/>
<path id="Vector_4" d="M29.7522 42.8587H12.7425C4.98183 42.8587 0.516785 38.7488 0.516785 31.6055V14.9703C0.516785 7.82692 4.98183 3.71704 12.7425 3.71704H29.7522C37.5129 3.71704 41.978 7.82692 41.978 14.9703V31.6055C41.978 38.7488 37.5129 42.8587 29.7522 42.8587ZM12.7425 6.65267C6.66154 6.65267 3.70611 9.37301 3.70611 14.9703V31.6055C3.70611 37.2027 6.66154 39.9231 12.7425 39.9231H29.7522C35.8332 39.9231 38.7886 37.2027 38.7886 31.6055V14.9703C38.7886 9.37301 35.8332 6.65267 29.7522 6.65267H12.7425Z" fill="#FF8E26"/>
<path id="Vector_5" d="M13.806 26.7127C13.5296 26.7127 13.2532 26.654 12.9981 26.5562C12.7429 26.4583 12.5091 26.3213 12.2964 26.1451C12.1051 25.9494 11.9562 25.7342 11.8499 25.4993C11.7436 25.2645 11.6798 25.01 11.6798 24.7556C11.6798 24.2468 11.9137 23.738 12.2964 23.3661C12.5091 23.19 12.7429 23.0529 12.9981 22.9551C13.3808 22.7985 13.806 22.7594 14.2313 22.8377C14.3589 22.8572 14.4864 22.8964 14.614 22.9551C14.7416 22.9942 14.8691 23.053 14.9967 23.1313C15.103 23.2096 15.2093 23.2878 15.3156 23.3661C15.4007 23.464 15.507 23.5618 15.5708 23.6597C15.6558 23.7771 15.7196 23.8945 15.7622 24.0119C15.826 24.1294 15.8685 24.2468 15.8897 24.3642C15.911 24.5012 15.9322 24.6186 15.9322 24.7556C15.9322 25.2645 15.6983 25.7733 15.3156 26.1451C14.9116 26.4974 14.3588 26.7127 13.806 26.7127Z" fill="#FF8E26"/>
<path id="Vector_6" d="M21.2477 26.7127C20.6949 26.7127 20.1421 26.4974 19.7381 26.1451C19.653 26.0472 19.568 25.9494 19.4829 25.8515C19.3979 25.7341 19.3341 25.6167 19.2915 25.4993C19.2277 25.3819 19.1852 25.2644 19.164 25.147C19.1427 25.01 19.1215 24.8926 19.1215 24.7556C19.1215 24.5012 19.1852 24.2467 19.2915 24.0119C19.3978 23.777 19.5467 23.5618 19.7381 23.3661C20.3334 22.8181 21.2902 22.6419 22.0556 22.955C22.3321 23.0529 22.5446 23.1899 22.7573 23.3661C23.14 23.7379 23.3739 24.2467 23.3739 24.7556C23.3739 24.8926 23.3526 25.01 23.3314 25.147C23.3101 25.2644 23.2676 25.3819 23.2038 25.4993C23.1613 25.6167 23.0975 25.7341 23.0124 25.8515C22.9274 25.9494 22.8423 26.0472 22.7573 26.1451C22.5446 26.3212 22.3321 26.4583 22.0556 26.5561C21.8005 26.654 21.5241 26.7127 21.2477 26.7127Z" fill="#FF8E26"/>
<path id="Vector_7" d="M13.806 33.5625C13.5296 33.5625 13.2532 33.5038 12.9981 33.4059C12.7429 33.3081 12.5091 33.171 12.2964 32.9949C12.1051 32.7992 11.9562 32.6035 11.8499 32.3491C11.7436 32.1142 11.6798 31.8598 11.6798 31.6054C11.6798 31.0965 11.9137 30.5877 12.2964 30.2159C12.5091 30.0397 12.7429 29.9027 12.9981 29.8048C13.7848 29.4917 14.7203 29.6679 15.3156 30.2159C15.4007 30.3137 15.507 30.4116 15.5708 30.5094C15.6558 30.6268 15.7196 30.7442 15.7622 30.8617C15.826 30.9791 15.8685 31.0965 15.8897 31.2335C15.911 31.351 15.9322 31.488 15.9322 31.6054C15.9322 32.1142 15.6983 32.623 15.3156 32.9949C14.9116 33.3472 14.3588 33.5625 13.806 33.5625Z" fill="#FF8E26"/>
</g>
</svg>
