<svg width="25" height="25" viewBox="0 0 25 25" fill="none" xmlns="http://www.w3.org/2000/svg">
<g clip-path="url(#clip0_0_470)">
<path d="M21.1777 12.2083C21.1812 13.5281 20.8728 14.8302 20.2777 16.0083C19.5722 17.42 18.4875 18.6075 17.1452 19.4376C15.8029 20.2677 14.256 20.7077 12.6777 20.7083C11.3579 20.7117 10.0558 20.4033 8.87773 19.8083L3.17773 21.7083L5.07773 16.0083C4.48267 14.8302 4.17429 13.5281 4.17773 12.2083C4.17835 10.63 4.61835 9.08313 5.44845 7.74083C6.27856 6.39853 7.46599 5.31385 8.87773 4.60828C10.0558 4.01321 11.3579 3.70484 12.6777 3.70828H13.1777C15.2621 3.82327 17.2308 4.70304 18.7069 6.17914C20.183 7.65524 21.0627 9.62393 21.1777 11.7083V12.2083Z" stroke="#4D77FF" stroke-width="2" stroke-linecap="round" stroke-linejoin="round"/>
</g>
<defs>
<clipPath id="clip0_0_470">
<rect width="24" height="24" fill="white" transform="translate(0.5 0.25)"/>
</clipPath>
</defs>
</svg>
