<svg width="22" height="23" viewBox="0 0 22 23" fill="none" xmlns="http://www.w3.org/2000/svg">
<path id="Vector" d="M11 0.5C4.93451 0.5 0 5.43451 0 11.5C0 17.5655 4.93451 22.5 11 22.5C17.0655 22.5 22 17.5655 22 11.5C22 5.43451 17.0655 0.5 11 0.5ZM17.4066 9.70698L16.4101 15.5123C16.3533 15.8422 16.0674 16.0833 15.7327 16.0833H6.26734C5.9326 16.0833 5.64668 15.8422 5.58992 15.5123L4.59341 9.70698C4.54938 9.45315 4.65203 9.1956 4.85839 9.0407C5.06554 8.88474 5.33953 8.86007 5.57241 8.9728L8.22533 10.2642L10.3995 6.35303C10.6417 5.91565 11.3594 5.91565 11.6013 6.35303L13.7757 10.2642L16.4284 8.9728C16.6605 8.86007 16.9355 8.88474 17.1427 9.0407C17.348 9.1956 17.4506 9.45315 17.4066 9.70698Z" fill="#EDA122"/>
</svg>
