<svg width="64" height="59" viewBox="0 0 64 59" fill="none" xmlns="http://www.w3.org/2000/svg">
<g id="Group 1000003597">
<path id="Vector" d="M46.8877 9.94509C46.2619 9.73687 39.3371 7.61893 33.3376 13.1252C33.3261 12.8612 33.2093 12.6025 32.9916 12.4174C32.8633 12.3091 29.8231 9.76422 25.9953 9.1669C22.5807 8.63373 19.3396 9.33305 16.8652 11.1355C14.1404 13.1189 12.4305 16.3063 11.7827 20.6063C10.7711 27.3272 13.0215 33.6369 15.1994 39.7383C16.21 42.5714 17.2553 45.5022 17.942 48.4057C18.1018 49.0798 18.2312 49.7865 18.3553 50.4701C18.5908 51.772 18.8359 53.118 19.3186 54.4283L19.3638 54.5566C19.6414 55.3285 20.2882 57.1457 21.8582 56.9785C23.7963 56.7818 24.3505 53.9972 24.7165 52.1547C24.7806 51.8277 24.8353 51.5501 24.8879 51.3597C25.4673 49.2544 26.153 47.0376 27.2288 45.0837C27.9744 43.7313 29.209 42.217 30.4373 42.0214C31.2039 41.9015 32.0683 42.014 32.6309 44.947C32.9832 46.7358 34.8698 55.7365 37.4221 57.3665C37.8238 57.6221 38.1971 57.701 38.5063 57.701C38.664 57.701 38.8071 57.6799 38.9259 57.6515C41.2058 57.1131 42.575 53.6459 43.5751 51.1147C43.7644 50.6331 43.9295 50.2177 44.063 49.9211C44.8854 48.1102 45.6047 46.2363 46.3009 44.4233C46.7415 43.2781 47.1968 42.0929 47.6701 40.9456C48.0444 40.0349 48.423 39.1263 48.8016 38.2188C49.7081 36.0409 50.6472 33.7904 51.5179 31.5494C51.7261 31.0131 51.9438 30.4757 52.1615 29.9373C53.129 27.547 54.1291 25.0768 54.4509 22.4277C54.699 20.4023 54.4992 18.4705 53.8577 16.6849C52.7325 13.5448 49.9321 10.839 46.8877 9.94509ZM52.4833 22.1911C52.192 24.5835 51.2413 26.9318 50.3222 29.2033C50.1003 29.7501 49.8795 30.2959 49.6681 30.8406C48.8058 33.0606 47.872 35.3005 46.9686 37.4669C46.589 38.3776 46.2094 39.2883 45.8339 40.2011C45.3523 41.3704 44.8917 42.5661 44.449 43.7229C43.7623 45.5096 43.0535 47.3562 42.2563 49.1135C42.1007 49.4542 41.9282 49.8906 41.7284 50.3964C41.0901 52.0128 39.7714 55.3559 38.5116 55.726C37.501 55.3022 35.6743 50.1346 34.5785 44.5747C34.3545 43.4095 33.7036 40.0244 30.7906 40.0244C30.5803 40.0244 30.3584 40.0412 30.1249 40.0791C27.7536 40.4545 26.0941 43.0446 25.4894 44.1393C24.3158 46.271 23.5871 48.6203 22.974 50.8402C22.9088 51.0821 22.8446 51.4028 22.771 51.7741C22.4008 53.6365 22.0464 54.7123 21.7299 54.9741C21.5985 54.8122 21.4302 54.4504 21.2325 53.8973L21.181 53.7542C20.7572 52.6017 20.5384 51.3965 20.306 50.1209C20.1767 49.4132 20.0442 48.6802 19.8728 47.9567C19.1598 44.947 18.0966 41.9646 17.0681 39.0821C14.8755 32.9376 12.8049 27.1327 13.744 20.8966C14.3097 17.135 15.7557 14.384 18.0377 12.7214C20.7961 10.7128 24.014 10.8495 25.6871 11.1103C28.9471 11.6193 31.674 13.8886 31.7045 13.9149C31.8832 14.0653 32.0999 14.1431 32.3165 14.1494C31.6445 14.8835 30.9894 15.7248 30.3626 16.6891C30.066 17.1455 30.1975 17.7554 30.6581 18.0499C31.1187 18.3433 31.7318 18.2118 32.0284 17.7565C37.7859 8.90084 45.9076 11.6855 46.2483 11.8064L46.3114 11.8275C48.7438 12.5352 51.0794 14.8035 51.9901 17.3442C52.5275 18.8407 52.6926 20.4707 52.4833 22.1911Z" fill="black"/>
<g id="Clip path group">
<mask id="mask0_126_3546" style="mask-type:luminance" maskUnits="userSpaceOnUse" x="56" y="0" width="8" height="59">
<g id="021c0b8710">
<path id="Vector_2" d="M56.6602 0H63.198V58.15H56.6602V0Z" fill="white"/>
</g>
</mask>
<g mask="url(#mask0_126_3546)">
<g id="Group">
<path id="Vector_3" d="M61.1533 11.0356L63.1241 6.39485L60.4361 0.740329C60.2395 0.2324 59.6653 -0.0189354 59.1553 0.175613C58.6442 0.370161 58.3886 0.940136 58.5853 1.44701L60.9746 6.33176L58.6904 10.6087V18.3086H56.7197V55.0383C56.7197 56.7534 58.3666 58.15 60.006 58.15C61.6455 58.15 63.1241 56.7534 63.1241 55.0383V18.3086H61.1533V11.0356ZM61.1533 20.2688V22.2437H58.6904V20.2688H61.1533ZM60.006 56.1824C59.4602 56.1824 58.6904 55.6692 58.6904 55.0383V23.2207H61.1533V55.0383C61.1533 55.6692 60.5529 56.1824 60.006 56.1824Z" fill="black"/>
</g>
</g>
</g>
<g id="Clip path group_2">
<mask id="mask1_126_3546" style="mask-type:luminance" maskUnits="userSpaceOnUse" x="0" y="0" width="12" height="59">
<g id="d9f400617e">
<path id="Vector_4" d="M0 0H11.4321V58.15H0V0Z" fill="white"/>
</g>
</mask>
<g mask="url(#mask1_126_3546)">
<g id="Group_2">
<path id="Vector_5" d="M5.71297 0.0978088C2.6044 0.0978088 0.0742188 2.60801 0.0742188 5.69239C0.0742188 8.36244 1.98395 10.5961 4.50782 11.1524V18.3086H2.5371V55.0383C2.5371 56.7535 3.84425 58.15 5.48372 58.15C7.12318 58.15 8.44821 56.7535 8.44821 55.0383V18.3086H6.47539V11.2312C9.22325 10.859 11.3496 8.52018 11.3496 5.69239C11.3496 2.60801 8.82154 0.0978088 5.71297 0.0978088ZM6.47854 20.2688V22.2437H4.4931V20.2688H6.47854ZM5.48372 56.1824C4.93688 56.1824 4.4931 55.6693 4.4931 55.0383V23.2207H6.47854V55.0383C6.47854 55.6693 6.03056 56.1824 5.48372 56.1824ZM5.71297 9.32046C3.69703 9.32046 2.05756 7.69256 2.05756 5.69239C2.05756 3.69222 3.69703 2.06538 5.71297 2.06538C7.72786 2.06538 9.36732 3.69222 9.36732 5.69239C9.36732 7.69256 7.72786 9.32046 5.71297 9.32046Z" fill="black"/>
</g>
</g>
</g>
</g>
</svg>
