<svg width="16" height="17" viewBox="0 0 16 17" fill="none" xmlns="http://www.w3.org/2000/svg">
<g id="GenderMale">
<path id="Vector" d="M13.52 2H10.6402C10.5129 2 10.3908 2.05057 10.3008 2.14058C10.2108 2.23059 10.1602 2.35268 10.1602 2.47998C10.1602 2.60727 10.2108 2.72936 10.3008 2.81937C10.3908 2.90938 10.5129 2.95995 10.6402 2.95995H12.3615L9.83741 5.48402C8.88401 4.7047 7.66755 4.32163 6.43963 4.41402C5.21171 4.50641 4.06627 5.0672 3.24022 5.98041C2.41416 6.89362 1.97068 8.08938 2.00151 9.32039C2.03233 10.5514 2.53509 11.7235 3.40582 12.5942C4.27654 13.4649 5.44861 13.9677 6.67961 13.9985C7.91062 14.0293 9.10638 13.5858 10.0196 12.7598C10.9328 11.9337 11.4936 10.7883 11.586 9.56037C11.6784 8.33245 11.2953 7.11599 10.516 6.16259L13.04 3.63912V5.35983C13.04 5.48713 13.0906 5.60921 13.1806 5.69922C13.2706 5.78924 13.3927 5.8398 13.52 5.8398C13.6473 5.8398 13.7694 5.78924 13.8594 5.69922C13.9494 5.60921 14 5.48713 14 5.35983V2.47998C14 2.35268 13.9494 2.23059 13.8594 2.14058C13.7694 2.05057 13.6473 2 13.52 2ZM9.51463 11.9169C8.97755 12.4537 8.29336 12.8193 7.54856 12.9673C6.80376 13.1153 6.03179 13.0392 5.33026 12.7485C4.62873 12.4578 4.02913 11.9657 3.60729 11.3342C3.18544 10.7028 2.96028 9.9605 2.96028 9.20113C2.96028 8.44176 3.18544 7.69945 3.60729 7.06803C4.02913 6.43662 4.62873 5.94446 5.33026 5.65378C6.03179 5.36311 6.80376 5.28696 7.54856 5.43498C8.29336 5.583 8.97755 5.94854 9.51463 6.48537C10.2336 7.2063 10.6374 8.18294 10.6374 9.20113C10.6374 10.2193 10.2336 11.196 9.51463 11.9169Z" fill="#4D77FF"/>
</g>
</svg>
