<svg width="154" height="69" viewBox="0 0 154 69" fill="none" xmlns="http://www.w3.org/2000/svg">
<path id="Intersect" fill-rule="evenodd" clip-rule="evenodd" d="M127.624 64.1275C124.496 67.1923 120.32 69 115.94 69H1.84653C0.912494 69 0.333565 67.9845 0.810194 67.1812C3.58972 62.4968 6.39705 57.7655 8.59956 52.9579C11.1206 47.4551 12.6346 41.3938 14.1373 35.3777C17.4134 22.2616 20.6359 9.36041 34.1232 2.93044C46.8 -3.11314 57.9912 2.03539 69.5513 7.35356C75.9334 10.2897 82.428 13.2775 89.347 14.4622C96.9977 15.7721 106.225 15.1006 115.289 14.441C131.919 13.2308 147.997 12.0608 152.768 23.2446C157.825 35.1008 145.154 47.2661 132.296 59.6123C130.731 61.1147 129.163 62.6199 127.624 64.1275Z" fill="#009CDE"/>
</svg>
