<svg width="111" height="103" viewBox="0 0 111 103" fill="none" xmlns="http://www.w3.org/2000/svg">
<path id="Intersect" fill-rule="evenodd" clip-rule="evenodd" d="M108.19 51.7176C110.02 54.0364 111 56.9067 111 59.861V87C111 95.8365 103.837 103 95 103H28.6538C25.9115 103 23.2264 102.214 20.9032 100.757C10.4161 94.1791 0.100905 87.7095 0.00070107 76.1905C-0.093481 65.3637 9.31689 59.2349 19.0373 52.9041C24.4039 49.409 29.8649 45.8523 33.8732 41.4095C38.3054 36.4969 41.6125 29.8351 44.8608 23.2918C50.8208 11.2859 56.5828 -0.321208 68.734 0.00679074C81.6158 0.354511 87.2561 13.1792 92.9802 26.1946C95.6424 32.2478 98.3227 38.3422 101.758 43.2419C103.817 46.1782 106.015 48.9633 108.19 51.7176Z" fill="#6E71E3"/>
</svg>
