<svg width="91" height="95" viewBox="0 0 91 95" fill="none" xmlns="http://www.w3.org/2000/svg">
<path id="Intersect" fill-rule="evenodd" clip-rule="evenodd" d="M84.4922 0.841607C87.5717 -0.534369 90.9997 1.72029 90.9997 5.09318V79C90.9997 87.8366 83.8362 95 74.9997 95H23.4213C19.0503 95 15.4011 91.7042 15.0416 87.348C14.5959 81.9483 14.1458 76.4945 13.1065 71.1537C11.9169 65.0406 9.476 58.6974 7.05332 52.4015C1.77142 38.6754 -3.42391 25.1742 4.62285 14.7727C12.1861 4.99626 25.4291 6.52753 39.1085 8.10924C46.6608 8.98249 54.346 9.87112 61.2819 8.88076C68.9513 7.78567 76.7914 4.28249 84.4922 0.841607Z" fill="#0066B2"/>
</svg>
