<svg width="25" height="24" viewBox="0 0 25 24" fill="none" xmlns="http://www.w3.org/2000/svg">
<path d="M20.9599 9.63006C20.8195 8.16898 20.3031 6.76915 19.4611 5.56688C18.619 4.36462 17.48 3.4009 16.1549 2.76956C14.8298 2.13822 13.3638 1.86079 11.8996 1.96427C10.4354 2.06775 9.02301 2.54863 7.79988 3.36006C6.74908 4.06271 5.86693 4.98936 5.21682 6.07346C4.56672 7.15755 4.16478 8.37217 4.03988 9.63006C3.91736 10.8797 4.07455 12.141 4.50005 13.3223C4.92555 14.5037 5.60868 15.5755 6.49988 16.4601L11.7999 21.7701C11.8928 21.8638 12.0034 21.9382 12.1253 21.989C12.2472 22.0397 12.3779 22.0659 12.5099 22.0659C12.6419 22.0659 12.7726 22.0397 12.8945 21.989C13.0163 21.9382 13.1269 21.8638 13.2199 21.7701L18.4999 16.4601C19.3911 15.5755 20.0742 14.5037 20.4997 13.3223C20.9252 12.141 21.0824 10.8797 20.9599 9.63006ZM17.0999 15.0501L12.4999 19.6501L7.89988 15.0501C7.22197 14.3721 6.70268 13.5524 6.37935 12.6498C6.05601 11.7473 5.93667 10.7843 6.02988 9.83006C6.1237 8.86117 6.43164 7.92522 6.93145 7.08991C7.43126 6.25459 8.11044 5.54077 8.91988 5.00006C9.98083 4.2953 11.2262 3.91936 12.4999 3.91936C13.7736 3.91936 15.0189 4.2953 16.0799 5.00006C16.8869 5.53868 17.5646 6.24935 18.0642 7.081C18.5639 7.91266 18.8732 8.84467 18.9699 9.81007C19.0661 10.7675 18.9483 11.7343 18.6249 12.6406C18.3014 13.5469 17.7805 14.3699 17.0999 15.0501ZM12.4999 6.00006C11.6099 6.00006 10.7398 6.26399 9.99982 6.75845C9.25979 7.25292 8.68302 7.95572 8.34242 8.77799C8.00183 9.60026 7.91271 10.5051 8.08635 11.378C8.25998 12.2509 8.68856 13.0527 9.3179 13.682C9.94724 14.3114 10.7491 14.74 11.622 14.9136C12.4949 15.0872 13.3997 14.9981 14.222 14.6575C15.0442 14.3169 15.747 13.7402 16.2415 13.0001C16.736 12.2601 16.9999 11.3901 16.9999 10.5001C16.9972 9.3074 16.5223 8.16434 15.6789 7.321C14.8356 6.47766 13.6925 6.00271 12.4999 6.00006ZM12.4999 13.0001C12.0054 13.0001 11.5221 12.8534 11.111 12.5787C10.6998 12.304 10.3794 11.9136 10.1902 11.4568C10.001 11 9.95145 10.4973 10.0479 10.0123C10.1444 9.52739 10.3825 9.08193 10.7321 8.7323C11.0817 8.38267 11.5272 8.14456 12.0122 8.0481C12.4971 7.95164 12.9998 8.00115 13.4566 8.19037C13.9134 8.37958 14.3039 8.70002 14.5786 9.11114C14.8533 9.52226 14.9999 10.0056 14.9999 10.5001C14.9999 11.1631 14.7365 11.799 14.2676 12.2678C13.7988 12.7367 13.1629 13.0001 12.4999 13.0001Z" fill="#4D77FF"/>
</svg>
