<svg width="24" height="24" viewBox="0 0 24 24" fill="none" xmlns="http://www.w3.org/2000/svg">
<g id="users-01" clip-path="url(#clip0_168_2120)">
<g id="Vector">
<mask id="path-1-outside-1_168_2120" maskUnits="userSpaceOnUse" x="0" y="-0.599976" width="25" height="25" fill="black">
<rect fill="white" y="-0.599976" width="25" height="25"/>
<path d="M12.5003 9.00052C8.53069 9.00052 5.30111 12.2299 5.30111 16.2003C5.30111 20.1702 8.53069 23.4 12.5003 23.4C16.47 23.4 19.6996 20.1702 19.6996 16.2003C19.6996 12.2299 16.47 9.00052 12.5003 9.00052ZM8.60892 21.5609C8.85728 19.627 10.5353 18.1342 12.5003 18.1342C14.4654 18.1342 16.1439 19.627 16.3918 21.5609C15.2982 22.3568 13.9532 22.8274 12.5003 22.8274C11.0475 22.8274 9.70243 22.3568 8.60892 21.5609ZM16.9026 21.1489C16.7138 20.236 16.243 19.4006 15.5452 18.7558C14.7106 17.9858 13.6293 17.5611 12.5003 17.5611C11.3714 17.5611 10.2901 17.9853 9.45544 18.7558C8.75767 19.4006 8.28688 20.236 8.0981 21.1489C6.7344 19.9342 5.87333 18.1659 5.87333 16.2003C5.87333 12.5462 8.84637 9.57316 12.5003 9.57316C16.1543 9.57316 19.1273 12.5462 19.1273 16.2003C19.1273 18.1659 18.2663 19.9347 16.9026 21.1489ZM12.5003 12.0089C11.1039 12.0089 9.96762 13.1451 9.96762 14.5418C9.96762 15.9389 11.1039 17.0747 12.5003 17.0747C13.8968 17.0747 15.0331 15.9389 15.0331 14.5418C15.0331 13.1451 13.8968 12.0089 12.5003 12.0089ZM12.5003 16.5029C11.4196 16.5029 10.5403 15.6231 10.5403 14.5427C10.5403 13.4619 11.4196 12.582 12.5003 12.582C13.5811 12.582 14.4604 13.4619 14.4604 14.5427C14.4604 15.6231 13.5811 16.5029 12.5003 16.5029ZM10.664 4.63947L10.2474 6.70179C10.2246 6.8116 10.2687 6.92413 10.3593 6.99038C10.4498 7.05618 10.5708 7.06253 10.6686 7.00762L12.5008 5.97397L14.333 7.00762C14.3771 7.03258 14.4258 7.04438 14.474 7.04438C14.5332 7.04438 14.5923 7.02577 14.6423 6.98947C14.7328 6.92368 14.777 6.81115 14.7542 6.70134L14.3376 4.63902L15.8873 3.21604C15.9696 3.14026 16.0001 3.02319 15.966 2.91701C15.931 2.81038 15.8377 2.73369 15.7263 2.72099L13.6366 2.4805L12.7619 0.567007C12.7141 0.465365 12.6122 0.400024 12.5003 0.400024C12.388 0.400024 12.2865 0.465365 12.2397 0.56746L11.365 2.48095L9.27531 2.72144C9.16387 2.73415 9.07062 2.81038 9.03559 2.91746C9.00102 3.0241 9.03195 3.14117 9.11428 3.21649L10.664 4.63947ZM11.5915 3.0309C11.6911 3.01956 11.7775 2.95649 11.8189 2.86528L12.5003 1.37469L13.1817 2.86528C13.2231 2.95649 13.3096 3.01956 13.4092 3.0309L15.0376 3.21876L13.8304 4.32774C13.7562 4.39535 13.7235 4.49699 13.7435 4.595L14.0683 6.20175L12.6404 5.39634C12.5968 5.37138 12.5486 5.35958 12.4999 5.35958C12.4512 5.35958 12.403 5.37229 12.3589 5.39634L10.9315 6.20175L11.2563 4.595C11.2763 4.49699 11.2435 4.39535 11.1694 4.32774L9.96216 3.21876L11.5915 3.0309ZM15.3747 5.37229C15.3401 5.47847 15.371 5.59599 15.4534 5.67131L16.6747 6.79254L16.3458 8.41744C16.3235 8.52725 16.3672 8.63978 16.4577 8.70558C16.5487 8.77137 16.6692 8.77864 16.767 8.72328L18.2103 7.90878L19.6541 8.72328C19.6978 8.74823 19.7464 8.76003 19.7946 8.76003C19.8538 8.76003 19.9129 8.74143 19.9629 8.70513C20.0539 8.63933 20.0976 8.5268 20.0753 8.41699L19.7464 6.79209L20.9678 5.67086C21.0501 5.59508 21.0806 5.47801 21.0464 5.37138C21.0114 5.2652 20.9182 5.18851 20.8067 5.17536L19.1601 4.98614L18.471 3.47831C18.4241 3.37621 18.3227 3.31087 18.2103 3.31087C18.0984 3.31087 17.9965 3.37621 17.9501 3.47831L17.261 4.98614L15.6144 5.17536C15.5029 5.18897 15.4097 5.26565 15.3747 5.37229ZM17.4871 5.537C17.5867 5.52566 17.6731 5.46258 17.715 5.37138L18.2103 4.28645L18.7061 5.37138C18.748 5.46258 18.834 5.52566 18.934 5.537L20.1185 5.67358L19.2402 6.48036C19.1665 6.54842 19.1333 6.65006 19.1533 6.74808L19.3903 7.91741L18.3513 7.3307C18.3072 7.3062 18.259 7.29394 18.2103 7.29394C18.1617 7.29394 18.1134 7.30665 18.0698 7.3307L17.0308 7.91741L17.2678 6.74808C17.2878 6.65006 17.2546 6.54842 17.181 6.48036L16.3021 5.67358L17.4871 5.537ZM23.9863 9.5954C23.9512 9.48922 23.8575 9.41253 23.7466 9.39937L22.5061 9.25689L21.9867 8.12114C21.9398 8.01905 21.8384 7.95371 21.7265 7.95371C21.6141 7.95371 21.5127 8.01905 21.4658 8.12114L20.9464 9.25689L19.7059 9.39937C19.595 9.41253 19.5012 9.48876 19.4662 9.5954C19.4317 9.70203 19.4626 9.81955 19.5454 9.89488L20.4647 10.7393L20.2172 11.9636C20.1945 12.0729 20.2386 12.1859 20.3291 12.2517C20.4196 12.3175 20.5406 12.3243 20.6384 12.2694L21.7256 11.6554L22.8132 12.2694C22.8573 12.2939 22.906 12.3061 22.9542 12.3061C23.0133 12.3061 23.0724 12.2875 23.1225 12.2512C23.213 12.1854 23.2571 12.0725 23.2344 11.9626L22.9869 10.7389L23.9062 9.89442C23.9899 9.8191 24.0204 9.70203 23.9863 9.5954ZM22.4811 10.4271C22.407 10.4952 22.3742 10.5968 22.3942 10.6948L22.5498 11.4631L21.867 11.0783C21.8229 11.0533 21.7751 11.0415 21.7265 11.0415C21.6778 11.0415 21.6296 11.0538 21.5855 11.0783L20.9027 11.4631L21.0583 10.6948C21.0783 10.5968 21.0455 10.4952 20.9714 10.4271L20.3942 9.89714L21.1729 9.8073C21.2725 9.79596 21.3589 9.73288 21.4003 9.64168L21.7265 8.92883L22.0522 9.64168C22.0936 9.73288 22.18 9.79596 22.2796 9.8073L23.0583 9.89714L22.4811 10.4271ZM5.25426 6.79254L4.92538 8.41744C4.9031 8.52725 4.94676 8.63978 5.03728 8.70558C5.12826 8.77137 5.2488 8.77864 5.34659 8.72328L6.7899 7.90878L8.23366 8.72328C8.27732 8.74823 8.32599 8.76003 8.37421 8.76003C8.43334 8.76003 8.49248 8.74143 8.54251 8.70513C8.63349 8.63933 8.67715 8.5268 8.65487 8.41699L8.32599 6.79209L9.54732 5.67086C9.62965 5.59508 9.66013 5.47801 9.62601 5.37138C9.59099 5.2652 9.49774 5.18851 9.3863 5.17536L7.73967 4.98614L7.05054 3.47831C7.00369 3.37621 6.90225 3.31087 6.7899 3.31087C6.678 3.31087 6.57656 3.37621 6.52971 3.47831L5.84058 4.98614L4.19395 5.17536C4.08251 5.18851 3.98926 5.26475 3.95424 5.37138C3.91967 5.47801 3.9506 5.59553 4.03293 5.67086L5.25426 6.79254ZM6.06665 5.537C6.16627 5.52566 6.2527 5.46258 6.29454 5.37138L6.7899 4.28645L7.28571 5.37138C7.32755 5.46258 7.41398 5.52566 7.5136 5.537L8.69808 5.67358L7.81972 6.48036C7.74604 6.54842 7.71283 6.65006 7.73284 6.74808L7.96983 7.91741L6.93091 7.3307C6.88679 7.3062 6.83857 7.29394 6.7899 7.29394C6.74123 7.29394 6.69347 7.30665 6.64934 7.3307L5.61042 7.91741L5.84741 6.74808C5.86742 6.65006 5.83422 6.54842 5.76053 6.48036L4.88172 5.67358L6.06665 5.537ZM4.53556 10.7393L5.45485 9.89488C5.53764 9.8191 5.56812 9.70203 5.53355 9.5954C5.49898 9.48922 5.40527 9.41253 5.29428 9.39937L4.0534 9.25689L3.53439 8.12114C3.48754 8.01905 3.3861 7.95371 3.27375 7.95371C3.16185 7.95371 3.05996 8.01905 3.01356 8.12114L2.4941 9.25689L1.25367 9.39937C1.14223 9.41253 1.04898 9.48876 1.01395 9.5954C0.979385 9.70203 1.01032 9.81955 1.09265 9.89488L2.0124 10.7393L1.76449 11.9636C1.7422 12.0729 1.78632 12.1859 1.87684 12.2517C1.92688 12.288 1.98556 12.3066 2.04515 12.3066C2.09336 12.3066 2.14203 12.2939 2.18616 12.2698L3.2733 11.6559L4.36089 12.2698C4.45869 12.3252 4.57923 12.3179 4.6702 12.2521C4.76072 12.1863 4.80484 12.0734 4.7821 11.964L4.53556 10.7393ZM4.02929 10.4271C3.95515 10.4952 3.9224 10.5968 3.94241 10.6948L4.09798 11.4631L3.41522 11.0783C3.32788 11.0288 3.22099 11.0288 3.13365 11.0783L2.45089 11.4631L2.60646 10.6948C2.62647 10.5968 2.59326 10.4952 2.51958 10.4271L1.94235 9.89714L2.72108 9.8073C2.8207 9.79596 2.90712 9.73288 2.94852 9.64168L3.27421 8.92883L3.60035 9.64168C3.64174 9.73288 3.72817 9.79596 3.82778 9.8073L4.60652 9.89714L4.02929 10.4271Z"/>
</mask>
<path d="M12.5003 9.00052C8.53069 9.00052 5.30111 12.2299 5.30111 16.2003C5.30111 20.1702 8.53069 23.4 12.5003 23.4C16.47 23.4 19.6996 20.1702 19.6996 16.2003C19.6996 12.2299 16.47 9.00052 12.5003 9.00052ZM8.60892 21.5609C8.85728 19.627 10.5353 18.1342 12.5003 18.1342C14.4654 18.1342 16.1439 19.627 16.3918 21.5609C15.2982 22.3568 13.9532 22.8274 12.5003 22.8274C11.0475 22.8274 9.70243 22.3568 8.60892 21.5609ZM16.9026 21.1489C16.7138 20.236 16.243 19.4006 15.5452 18.7558C14.7106 17.9858 13.6293 17.5611 12.5003 17.5611C11.3714 17.5611 10.2901 17.9853 9.45544 18.7558C8.75767 19.4006 8.28688 20.236 8.0981 21.1489C6.7344 19.9342 5.87333 18.1659 5.87333 16.2003C5.87333 12.5462 8.84637 9.57316 12.5003 9.57316C16.1543 9.57316 19.1273 12.5462 19.1273 16.2003C19.1273 18.1659 18.2663 19.9347 16.9026 21.1489ZM12.5003 12.0089C11.1039 12.0089 9.96762 13.1451 9.96762 14.5418C9.96762 15.9389 11.1039 17.0747 12.5003 17.0747C13.8968 17.0747 15.0331 15.9389 15.0331 14.5418C15.0331 13.1451 13.8968 12.0089 12.5003 12.0089ZM12.5003 16.5029C11.4196 16.5029 10.5403 15.6231 10.5403 14.5427C10.5403 13.4619 11.4196 12.582 12.5003 12.582C13.5811 12.582 14.4604 13.4619 14.4604 14.5427C14.4604 15.6231 13.5811 16.5029 12.5003 16.5029ZM10.664 4.63947L10.2474 6.70179C10.2246 6.8116 10.2687 6.92413 10.3593 6.99038C10.4498 7.05618 10.5708 7.06253 10.6686 7.00762L12.5008 5.97397L14.333 7.00762C14.3771 7.03258 14.4258 7.04438 14.474 7.04438C14.5332 7.04438 14.5923 7.02577 14.6423 6.98947C14.7328 6.92368 14.777 6.81115 14.7542 6.70134L14.3376 4.63902L15.8873 3.21604C15.9696 3.14026 16.0001 3.02319 15.966 2.91701C15.931 2.81038 15.8377 2.73369 15.7263 2.72099L13.6366 2.4805L12.7619 0.567007C12.7141 0.465365 12.6122 0.400024 12.5003 0.400024C12.388 0.400024 12.2865 0.465365 12.2397 0.56746L11.365 2.48095L9.27531 2.72144C9.16387 2.73415 9.07062 2.81038 9.03559 2.91746C9.00102 3.0241 9.03195 3.14117 9.11428 3.21649L10.664 4.63947ZM11.5915 3.0309C11.6911 3.01956 11.7775 2.95649 11.8189 2.86528L12.5003 1.37469L13.1817 2.86528C13.2231 2.95649 13.3096 3.01956 13.4092 3.0309L15.0376 3.21876L13.8304 4.32774C13.7562 4.39535 13.7235 4.49699 13.7435 4.595L14.0683 6.20175L12.6404 5.39634C12.5968 5.37138 12.5486 5.35958 12.4999 5.35958C12.4512 5.35958 12.403 5.37229 12.3589 5.39634L10.9315 6.20175L11.2563 4.595C11.2763 4.49699 11.2435 4.39535 11.1694 4.32774L9.96216 3.21876L11.5915 3.0309ZM15.3747 5.37229C15.3401 5.47847 15.371 5.59599 15.4534 5.67131L16.6747 6.79254L16.3458 8.41744C16.3235 8.52725 16.3672 8.63978 16.4577 8.70558C16.5487 8.77137 16.6692 8.77864 16.767 8.72328L18.2103 7.90878L19.6541 8.72328C19.6978 8.74823 19.7464 8.76003 19.7946 8.76003C19.8538 8.76003 19.9129 8.74143 19.9629 8.70513C20.0539 8.63933 20.0976 8.5268 20.0753 8.41699L19.7464 6.79209L20.9678 5.67086C21.0501 5.59508 21.0806 5.47801 21.0464 5.37138C21.0114 5.2652 20.9182 5.18851 20.8067 5.17536L19.1601 4.98614L18.471 3.47831C18.4241 3.37621 18.3227 3.31087 18.2103 3.31087C18.0984 3.31087 17.9965 3.37621 17.9501 3.47831L17.261 4.98614L15.6144 5.17536C15.5029 5.18897 15.4097 5.26565 15.3747 5.37229ZM17.4871 5.537C17.5867 5.52566 17.6731 5.46258 17.715 5.37138L18.2103 4.28645L18.7061 5.37138C18.748 5.46258 18.834 5.52566 18.934 5.537L20.1185 5.67358L19.2402 6.48036C19.1665 6.54842 19.1333 6.65006 19.1533 6.74808L19.3903 7.91741L18.3513 7.3307C18.3072 7.3062 18.259 7.29394 18.2103 7.29394C18.1617 7.29394 18.1134 7.30665 18.0698 7.3307L17.0308 7.91741L17.2678 6.74808C17.2878 6.65006 17.2546 6.54842 17.181 6.48036L16.3021 5.67358L17.4871 5.537ZM23.9863 9.5954C23.9512 9.48922 23.8575 9.41253 23.7466 9.39937L22.5061 9.25689L21.9867 8.12114C21.9398 8.01905 21.8384 7.95371 21.7265 7.95371C21.6141 7.95371 21.5127 8.01905 21.4658 8.12114L20.9464 9.25689L19.7059 9.39937C19.595 9.41253 19.5012 9.48876 19.4662 9.5954C19.4317 9.70203 19.4626 9.81955 19.5454 9.89488L20.4647 10.7393L20.2172 11.9636C20.1945 12.0729 20.2386 12.1859 20.3291 12.2517C20.4196 12.3175 20.5406 12.3243 20.6384 12.2694L21.7256 11.6554L22.8132 12.2694C22.8573 12.2939 22.906 12.3061 22.9542 12.3061C23.0133 12.3061 23.0724 12.2875 23.1225 12.2512C23.213 12.1854 23.2571 12.0725 23.2344 11.9626L22.9869 10.7389L23.9062 9.89442C23.9899 9.8191 24.0204 9.70203 23.9863 9.5954ZM22.4811 10.4271C22.407 10.4952 22.3742 10.5968 22.3942 10.6948L22.5498 11.4631L21.867 11.0783C21.8229 11.0533 21.7751 11.0415 21.7265 11.0415C21.6778 11.0415 21.6296 11.0538 21.5855 11.0783L20.9027 11.4631L21.0583 10.6948C21.0783 10.5968 21.0455 10.4952 20.9714 10.4271L20.3942 9.89714L21.1729 9.8073C21.2725 9.79596 21.3589 9.73288 21.4003 9.64168L21.7265 8.92883L22.0522 9.64168C22.0936 9.73288 22.18 9.79596 22.2796 9.8073L23.0583 9.89714L22.4811 10.4271ZM5.25426 6.79254L4.92538 8.41744C4.9031 8.52725 4.94676 8.63978 5.03728 8.70558C5.12826 8.77137 5.2488 8.77864 5.34659 8.72328L6.7899 7.90878L8.23366 8.72328C8.27732 8.74823 8.32599 8.76003 8.37421 8.76003C8.43334 8.76003 8.49248 8.74143 8.54251 8.70513C8.63349 8.63933 8.67715 8.5268 8.65487 8.41699L8.32599 6.79209L9.54732 5.67086C9.62965 5.59508 9.66013 5.47801 9.62601 5.37138C9.59099 5.2652 9.49774 5.18851 9.3863 5.17536L7.73967 4.98614L7.05054 3.47831C7.00369 3.37621 6.90225 3.31087 6.7899 3.31087C6.678 3.31087 6.57656 3.37621 6.52971 3.47831L5.84058 4.98614L4.19395 5.17536C4.08251 5.18851 3.98926 5.26475 3.95424 5.37138C3.91967 5.47801 3.9506 5.59553 4.03293 5.67086L5.25426 6.79254ZM6.06665 5.537C6.16627 5.52566 6.2527 5.46258 6.29454 5.37138L6.7899 4.28645L7.28571 5.37138C7.32755 5.46258 7.41398 5.52566 7.5136 5.537L8.69808 5.67358L7.81972 6.48036C7.74604 6.54842 7.71283 6.65006 7.73284 6.74808L7.96983 7.91741L6.93091 7.3307C6.88679 7.3062 6.83857 7.29394 6.7899 7.29394C6.74123 7.29394 6.69347 7.30665 6.64934 7.3307L5.61042 7.91741L5.84741 6.74808C5.86742 6.65006 5.83422 6.54842 5.76053 6.48036L4.88172 5.67358L6.06665 5.537ZM4.53556 10.7393L5.45485 9.89488C5.53764 9.8191 5.56812 9.70203 5.53355 9.5954C5.49898 9.48922 5.40527 9.41253 5.29428 9.39937L4.0534 9.25689L3.53439 8.12114C3.48754 8.01905 3.3861 7.95371 3.27375 7.95371C3.16185 7.95371 3.05996 8.01905 3.01356 8.12114L2.4941 9.25689L1.25367 9.39937C1.14223 9.41253 1.04898 9.48876 1.01395 9.5954C0.979385 9.70203 1.01032 9.81955 1.09265 9.89488L2.0124 10.7393L1.76449 11.9636C1.7422 12.0729 1.78632 12.1859 1.87684 12.2517C1.92688 12.288 1.98556 12.3066 2.04515 12.3066C2.09336 12.3066 2.14203 12.2939 2.18616 12.2698L3.2733 11.6559L4.36089 12.2698C4.45869 12.3252 4.57923 12.3179 4.6702 12.2521C4.76072 12.1863 4.80484 12.0734 4.7821 11.964L4.53556 10.7393ZM4.02929 10.4271C3.95515 10.4952 3.9224 10.5968 3.94241 10.6948L4.09798 11.4631L3.41522 11.0783C3.32788 11.0288 3.22099 11.0288 3.13365 11.0783L2.45089 11.4631L2.60646 10.6948C2.62647 10.5968 2.59326 10.4952 2.51958 10.4271L1.94235 9.89714L2.72108 9.8073C2.8207 9.79596 2.90712 9.73288 2.94852 9.64168L3.27421 8.92883L3.60035 9.64168C3.64174 9.73288 3.72817 9.79596 3.82778 9.8073L4.60652 9.89714L4.02929 10.4271Z" fill="#667085"/>
<path d="M12.5003 9.00052C8.53069 9.00052 5.30111 12.2299 5.30111 16.2003C5.30111 20.1702 8.53069 23.4 12.5003 23.4C16.47 23.4 19.6996 20.1702 19.6996 16.2003C19.6996 12.2299 16.47 9.00052 12.5003 9.00052ZM8.60892 21.5609C8.85728 19.627 10.5353 18.1342 12.5003 18.1342C14.4654 18.1342 16.1439 19.627 16.3918 21.5609C15.2982 22.3568 13.9532 22.8274 12.5003 22.8274C11.0475 22.8274 9.70243 22.3568 8.60892 21.5609ZM16.9026 21.1489C16.7138 20.236 16.243 19.4006 15.5452 18.7558C14.7106 17.9858 13.6293 17.5611 12.5003 17.5611C11.3714 17.5611 10.2901 17.9853 9.45544 18.7558C8.75767 19.4006 8.28688 20.236 8.0981 21.1489C6.7344 19.9342 5.87333 18.1659 5.87333 16.2003C5.87333 12.5462 8.84637 9.57316 12.5003 9.57316C16.1543 9.57316 19.1273 12.5462 19.1273 16.2003C19.1273 18.1659 18.2663 19.9347 16.9026 21.1489ZM12.5003 12.0089C11.1039 12.0089 9.96762 13.1451 9.96762 14.5418C9.96762 15.9389 11.1039 17.0747 12.5003 17.0747C13.8968 17.0747 15.0331 15.9389 15.0331 14.5418C15.0331 13.1451 13.8968 12.0089 12.5003 12.0089ZM12.5003 16.5029C11.4196 16.5029 10.5403 15.6231 10.5403 14.5427C10.5403 13.4619 11.4196 12.582 12.5003 12.582C13.5811 12.582 14.4604 13.4619 14.4604 14.5427C14.4604 15.6231 13.5811 16.5029 12.5003 16.5029ZM10.664 4.63947L10.2474 6.70179C10.2246 6.8116 10.2687 6.92413 10.3593 6.99038C10.4498 7.05618 10.5708 7.06253 10.6686 7.00762L12.5008 5.97397L14.333 7.00762C14.3771 7.03258 14.4258 7.04438 14.474 7.04438C14.5332 7.04438 14.5923 7.02577 14.6423 6.98947C14.7328 6.92368 14.777 6.81115 14.7542 6.70134L14.3376 4.63902L15.8873 3.21604C15.9696 3.14026 16.0001 3.02319 15.966 2.91701C15.931 2.81038 15.8377 2.73369 15.7263 2.72099L13.6366 2.4805L12.7619 0.567007C12.7141 0.465365 12.6122 0.400024 12.5003 0.400024C12.388 0.400024 12.2865 0.465365 12.2397 0.56746L11.365 2.48095L9.27531 2.72144C9.16387 2.73415 9.07062 2.81038 9.03559 2.91746C9.00102 3.0241 9.03195 3.14117 9.11428 3.21649L10.664 4.63947ZM11.5915 3.0309C11.6911 3.01956 11.7775 2.95649 11.8189 2.86528L12.5003 1.37469L13.1817 2.86528C13.2231 2.95649 13.3096 3.01956 13.4092 3.0309L15.0376 3.21876L13.8304 4.32774C13.7562 4.39535 13.7235 4.49699 13.7435 4.595L14.0683 6.20175L12.6404 5.39634C12.5968 5.37138 12.5486 5.35958 12.4999 5.35958C12.4512 5.35958 12.403 5.37229 12.3589 5.39634L10.9315 6.20175L11.2563 4.595C11.2763 4.49699 11.2435 4.39535 11.1694 4.32774L9.96216 3.21876L11.5915 3.0309ZM15.3747 5.37229C15.3401 5.47847 15.371 5.59599 15.4534 5.67131L16.6747 6.79254L16.3458 8.41744C16.3235 8.52725 16.3672 8.63978 16.4577 8.70558C16.5487 8.77137 16.6692 8.77864 16.767 8.72328L18.2103 7.90878L19.6541 8.72328C19.6978 8.74823 19.7464 8.76003 19.7946 8.76003C19.8538 8.76003 19.9129 8.74143 19.9629 8.70513C20.0539 8.63933 20.0976 8.5268 20.0753 8.41699L19.7464 6.79209L20.9678 5.67086C21.0501 5.59508 21.0806 5.47801 21.0464 5.37138C21.0114 5.2652 20.9182 5.18851 20.8067 5.17536L19.1601 4.98614L18.471 3.47831C18.4241 3.37621 18.3227 3.31087 18.2103 3.31087C18.0984 3.31087 17.9965 3.37621 17.9501 3.47831L17.261 4.98614L15.6144 5.17536C15.5029 5.18897 15.4097 5.26565 15.3747 5.37229ZM17.4871 5.537C17.5867 5.52566 17.6731 5.46258 17.715 5.37138L18.2103 4.28645L18.7061 5.37138C18.748 5.46258 18.834 5.52566 18.934 5.537L20.1185 5.67358L19.2402 6.48036C19.1665 6.54842 19.1333 6.65006 19.1533 6.74808L19.3903 7.91741L18.3513 7.3307C18.3072 7.3062 18.259 7.29394 18.2103 7.29394C18.1617 7.29394 18.1134 7.30665 18.0698 7.3307L17.0308 7.91741L17.2678 6.74808C17.2878 6.65006 17.2546 6.54842 17.181 6.48036L16.3021 5.67358L17.4871 5.537ZM23.9863 9.5954C23.9512 9.48922 23.8575 9.41253 23.7466 9.39937L22.5061 9.25689L21.9867 8.12114C21.9398 8.01905 21.8384 7.95371 21.7265 7.95371C21.6141 7.95371 21.5127 8.01905 21.4658 8.12114L20.9464 9.25689L19.7059 9.39937C19.595 9.41253 19.5012 9.48876 19.4662 9.5954C19.4317 9.70203 19.4626 9.81955 19.5454 9.89488L20.4647 10.7393L20.2172 11.9636C20.1945 12.0729 20.2386 12.1859 20.3291 12.2517C20.4196 12.3175 20.5406 12.3243 20.6384 12.2694L21.7256 11.6554L22.8132 12.2694C22.8573 12.2939 22.906 12.3061 22.9542 12.3061C23.0133 12.3061 23.0724 12.2875 23.1225 12.2512C23.213 12.1854 23.2571 12.0725 23.2344 11.9626L22.9869 10.7389L23.9062 9.89442C23.9899 9.8191 24.0204 9.70203 23.9863 9.5954ZM22.4811 10.4271C22.407 10.4952 22.3742 10.5968 22.3942 10.6948L22.5498 11.4631L21.867 11.0783C21.8229 11.0533 21.7751 11.0415 21.7265 11.0415C21.6778 11.0415 21.6296 11.0538 21.5855 11.0783L20.9027 11.4631L21.0583 10.6948C21.0783 10.5968 21.0455 10.4952 20.9714 10.4271L20.3942 9.89714L21.1729 9.8073C21.2725 9.79596 21.3589 9.73288 21.4003 9.64168L21.7265 8.92883L22.0522 9.64168C22.0936 9.73288 22.18 9.79596 22.2796 9.8073L23.0583 9.89714L22.4811 10.4271ZM5.25426 6.79254L4.92538 8.41744C4.9031 8.52725 4.94676 8.63978 5.03728 8.70558C5.12826 8.77137 5.2488 8.77864 5.34659 8.72328L6.7899 7.90878L8.23366 8.72328C8.27732 8.74823 8.32599 8.76003 8.37421 8.76003C8.43334 8.76003 8.49248 8.74143 8.54251 8.70513C8.63349 8.63933 8.67715 8.5268 8.65487 8.41699L8.32599 6.79209L9.54732 5.67086C9.62965 5.59508 9.66013 5.47801 9.62601 5.37138C9.59099 5.2652 9.49774 5.18851 9.3863 5.17536L7.73967 4.98614L7.05054 3.47831C7.00369 3.37621 6.90225 3.31087 6.7899 3.31087C6.678 3.31087 6.57656 3.37621 6.52971 3.47831L5.84058 4.98614L4.19395 5.17536C4.08251 5.18851 3.98926 5.26475 3.95424 5.37138C3.91967 5.47801 3.9506 5.59553 4.03293 5.67086L5.25426 6.79254ZM6.06665 5.537C6.16627 5.52566 6.2527 5.46258 6.29454 5.37138L6.7899 4.28645L7.28571 5.37138C7.32755 5.46258 7.41398 5.52566 7.5136 5.537L8.69808 5.67358L7.81972 6.48036C7.74604 6.54842 7.71283 6.65006 7.73284 6.74808L7.96983 7.91741L6.93091 7.3307C6.88679 7.3062 6.83857 7.29394 6.7899 7.29394C6.74123 7.29394 6.69347 7.30665 6.64934 7.3307L5.61042 7.91741L5.84741 6.74808C5.86742 6.65006 5.83422 6.54842 5.76053 6.48036L4.88172 5.67358L6.06665 5.537ZM4.53556 10.7393L5.45485 9.89488C5.53764 9.8191 5.56812 9.70203 5.53355 9.5954C5.49898 9.48922 5.40527 9.41253 5.29428 9.39937L4.0534 9.25689L3.53439 8.12114C3.48754 8.01905 3.3861 7.95371 3.27375 7.95371C3.16185 7.95371 3.05996 8.01905 3.01356 8.12114L2.4941 9.25689L1.25367 9.39937C1.14223 9.41253 1.04898 9.48876 1.01395 9.5954C0.979385 9.70203 1.01032 9.81955 1.09265 9.89488L2.0124 10.7393L1.76449 11.9636C1.7422 12.0729 1.78632 12.1859 1.87684 12.2517C1.92688 12.288 1.98556 12.3066 2.04515 12.3066C2.09336 12.3066 2.14203 12.2939 2.18616 12.2698L3.2733 11.6559L4.36089 12.2698C4.45869 12.3252 4.57923 12.3179 4.6702 12.2521C4.76072 12.1863 4.80484 12.0734 4.7821 11.964L4.53556 10.7393ZM4.02929 10.4271C3.95515 10.4952 3.9224 10.5968 3.94241 10.6948L4.09798 11.4631L3.41522 11.0783C3.32788 11.0288 3.22099 11.0288 3.13365 11.0783L2.45089 11.4631L2.60646 10.6948C2.62647 10.5968 2.59326 10.4952 2.51958 10.4271L1.94235 9.89714L2.72108 9.8073C2.8207 9.79596 2.90712 9.73288 2.94852 9.64168L3.27421 8.92883L3.60035 9.64168C3.64174 9.73288 3.72817 9.79596 3.82778 9.8073L4.60652 9.89714L4.02929 10.4271Z" stroke="#667085" stroke-width="0.4" mask="url(#path-1-outside-1_168_2120)"/>
</g>
</g>
<defs>
<clipPath id="clip0_168_2120">
<rect width="24" height="24" fill="white"/>
</clipPath>
</defs>
</svg>
