<svg width="24" height="24" viewBox="0 0 24 24" fill="none" xmlns="http://www.w3.org/2000/svg">
<g id="users-01" clip-path="url(#clip0_168_2140)">
<g id="Group 1000003695">
<g id="Clip path group">
<mask id="mask0_168_2140" style="mask-type:luminance" maskUnits="userSpaceOnUse" x="21" y="8" width="7" height="15">
<g id="2c2964652f">
<path id="Vector" d="M21.8546 9.03708H21.7546V9.13708V22.1603V22.2603H21.8546H27.446H27.546V22.1603V9.13708V9.03708H27.446H21.8546Z" fill="white" stroke="white" stroke-width="0.2"/>
</g>
</mask>
<g mask="url(#mask0_168_2140)">
<g id="Group">
<path id="Vector_2" d="M26.9847 21.6918L26.9848 21.6918C27.3091 21.367 27.4881 20.9347 27.4881 20.4353V10.9176C27.4881 10.4182 27.3091 9.98593 26.9847 9.6616C26.6604 9.33726 26.2281 9.15818 25.7287 9.15818H23.561C23.0622 9.15818 22.6299 9.33725 22.3056 9.66154C21.9806 9.98595 21.8021 10.4183 21.8021 10.9176V20.4353C21.8021 20.9346 21.9806 21.3669 22.3055 21.6918C22.6298 22.0162 23.0621 22.1952 23.561 22.1952H25.7287C26.2281 22.1952 26.6604 22.0162 26.9847 21.6918ZM23.561 10.137H25.7287C25.9309 10.137 26.1097 10.2215 26.3004 10.3785C26.4237 10.5353 26.5093 10.7142 26.5093 10.9176V20.4017C26.5093 20.6154 26.4499 20.79 26.3054 20.9365C26.1479 21.0613 25.9673 21.1482 25.7623 21.1482H23.5951C23.3795 21.1482 23.2037 21.0878 23.0564 20.9405C22.9017 20.7858 22.8145 20.6071 22.8145 20.4017V10.8841C22.8145 10.6698 22.8739 10.4952 23.0184 10.3487C23.176 10.2239 23.3561 10.137 23.561 10.137Z" fill="#667085" stroke="#667085" stroke-width="0.2"/>
</g>
</g>
</g>
<g id="Clip path group_2">
<mask id="mask1_168_2140" style="mask-type:luminance" maskUnits="userSpaceOnUse" x="-1" y="10" width="24" height="13">
<g id="ad97046bdb">
<path id="Vector_3" d="M0 10.8604H-0.1V10.9604V22.4001V22.5001H0H22.7668H22.8668V22.4001V10.9604V10.8604H22.7668H0Z" fill="white" stroke="white" stroke-width="0.2"/>
</g>
</mask>
<g mask="url(#mask1_168_2140)">
<g id="Group_2">
<path id="Vector_4" d="M16.6118 12.0001H21.802V19.4376L12.097 21.184L12.083 21.1865L12.0703 21.1929L12.0026 21.2264L12.0021 21.2267L11.9344 21.2608L11.9201 21.268L11.9087 21.2794C11.861 21.3271 11.7844 21.355 11.6769 21.3905L11.6763 21.3906C11.593 21.4187 11.5076 21.4195 11.4035 21.4195H11.3359C11.3171 21.4195 11.2949 21.4146 11.2662 21.4064C11.2626 21.4053 11.2585 21.4041 11.2542 21.4028C11.2441 21.3999 11.2326 21.3965 11.2231 21.394C11.2156 21.392 11.2054 21.3895 11.1939 21.3877C11.1622 21.3731 11.1367 21.3647 11.1149 21.3574L11.1133 21.3569C11.0887 21.3487 11.0691 21.3421 11.0421 21.3284L11.0412 21.328L1.45735 16.6198L1.45742 16.6197L1.45253 16.6176C1.24458 16.5288 1.09511 16.3499 1.03529 16.1403L1.03539 16.1403L1.034 16.1361C0.975525 15.9607 0.973348 15.7555 1.05786 15.547C1.25566 15.3508 1.47617 15.166 1.68976 15.0743L1.68983 15.0745L1.69505 15.0719C1.86845 14.9852 2.0743 14.9825 2.2883 15.0742C2.28837 15.0743 2.28844 15.0743 2.2885 15.0743L7.19567 17.2066L7.26079 17.2394L7.28201 17.2501H7.30578H8.18637H8.28638V17.1501V16.3372V16.2372H8.18637H8.15229C7.87848 16.2372 7.63223 16.1157 7.44415 15.9276C7.2591 15.7426 7.13514 15.4625 7.13514 15.1854C7.13514 14.9098 7.25784 14.6315 7.4415 14.4459C7.66501 14.2553 7.9131 14.1342 8.22046 14.1342L8.2212 14.1342L12.8259 14.1001H12.8263H12.9277H12.944L12.9596 14.0949L13.0608 14.0608L13.0704 14.0576L13.0791 14.0525L16.6118 12.0001ZM22.7809 11.0872V10.9872H22.6809H16.4836H16.3819H16.3656L16.3501 10.9923L16.2484 11.0264L16.2382 11.0298L16.2289 11.0354L12.7304 13.1214L8.22046 13.1548C8.22033 13.1548 8.2202 13.1548 8.22007 13.1548C7.64965 13.1549 7.11715 13.4038 6.76094 13.76L6.76089 13.76C6.40514 14.1163 6.15629 14.6495 6.15629 15.2195C6.15629 15.3895 6.17289 15.5605 6.20684 15.721L2.70654 14.1797L2.70654 14.1797L2.70568 14.1793C2.20379 13.9639 1.73567 14.0005 1.30782 14.1787C0.950555 14.3215 0.601127 14.6037 0.293328 14.9115C0.293238 14.9115 0.293149 14.9116 0.293059 14.9117L0.259508 14.9448L0.247672 14.9564L0.240242 14.9713L0.20683 15.0381C-0.0449533 15.5065 -0.0428916 16.0088 0.0988041 16.4684L0.0983638 16.4685L0.102061 16.4774C0.279445 16.903 0.599004 17.2939 1.06111 17.5429L1.06108 17.5429L1.06445 17.5446L10.5806 22.2187L10.5802 22.2195L10.5929 22.2238C10.6408 22.2398 10.6807 22.2557 10.7232 22.2727L10.7239 22.273C10.7659 22.2898 10.8105 22.3076 10.8641 22.3255L10.9261 22.3464L10.9753 22.4448L11.0111 22.5165L11.0889 22.4971L11.3482 22.4324H11.37C11.5239 22.4324 11.6541 22.4057 11.7902 22.3778C11.8144 22.3728 11.8388 22.3678 11.8635 22.3629L11.8639 22.3628C12.0273 22.3298 12.1764 22.2942 12.3244 22.1897L22.3599 20.3644L22.3616 20.3641L22.7004 20.2964L22.7809 20.2804V20.1984V11.0872Z" fill="#667085" stroke="#667085" stroke-width="0.2"/>
</g>
</g>
</g>
<path id="Vector_5" d="M7.44889 16.0008L7.44911 16.0006L7.44372 15.9952C7.25749 15.809 7.13471 15.5626 7.13471 15.253C7.13471 14.9774 7.25741 14.6991 7.44107 14.5134C7.66458 14.3229 7.91267 14.2018 8.22003 14.2018H12.5884C12.8807 14.2018 13.0949 13.9876 13.0949 13.6953C13.0949 13.403 12.8807 13.1888 12.5884 13.1888H8.22003C7.64947 13.1888 7.11681 13.4377 6.76051 13.794C6.4047 14.1498 6.15586 14.683 6.15586 15.253C6.15586 15.8186 6.36728 16.3539 6.76218 16.7142C7.11846 17.0696 7.65036 17.3177 8.22003 17.3177H14.6203C14.9125 17.3177 15.1267 17.1035 15.1267 16.8112C15.1267 16.5189 14.9125 16.3047 14.6203 16.3047H8.22003C7.90012 16.3047 7.62758 16.209 7.44889 16.0008Z" fill="#667085" stroke="#667085" stroke-width="0.2"/>
<path id="Vector_6" d="M11.8448 4.24525L11.774 4.31586C11.9229 4.46523 12.0179 4.67897 12.0502 4.96756L12.0619 5.07242L12.166 5.05509L12.9784 4.91977L13.0739 4.90387L13.0611 4.80793C12.991 4.28134 12.7791 3.84941 12.4167 3.55858C12.1453 3.32197 11.7845 3.18403 11.369 3.13782V2.85645V2.75645H11.269H10.7948H10.6948V2.85645V3.13605C10.1882 3.18032 9.81961 3.31832 9.54362 3.56007L9.54361 3.56006L9.54221 3.56133C9.14757 3.92039 8.93364 4.42206 8.93364 4.99002C8.93364 5.30846 9.00397 5.63122 9.15032 5.88669C9.29446 6.13918 9.51026 6.35554 9.76291 6.49976L9.76284 6.49989L9.76777 6.50236C10.0854 6.66117 10.3764 6.79185 10.6948 6.89313V9.17314C10.4659 9.11867 10.2592 8.97571 10.096 8.75771L10.0961 8.75763L10.0928 8.75356C9.94198 8.57291 9.84324 8.25807 9.77581 7.85296L9.75856 7.74934L9.65591 7.77167L8.87706 7.94107L8.79133 7.95972L8.79867 8.04714C8.83371 8.46506 8.93834 8.82028 9.11825 9.10772C9.29785 9.39517 9.54809 9.60889 9.79686 9.75143L9.797 9.75151C10.0294 9.88419 10.3202 9.98445 10.6948 10.0261V10.7147V10.8147H10.7948H11.269H11.369V10.7147V9.99422C11.888 9.94568 12.3232 9.76719 12.6636 9.39315L12.6636 9.3931C13.0199 9.00099 13.1978 8.53666 13.1978 7.97113C13.1978 7.71688 13.125 7.46629 13.0569 7.26196C12.9842 7.04351 12.8741 6.86131 12.6945 6.68112L12.6949 6.68068L12.6862 6.6737C12.5124 6.53432 12.3021 6.39412 12.0558 6.28806C11.9178 6.21966 11.6914 6.15407 11.3349 6.06381V4.03949C11.5179 4.10106 11.6449 4.18676 11.7741 4.31596L11.8448 4.24525ZM11.8448 4.24525C11.6973 4.09769 11.5497 4.00146 11.3349 3.93438L11.269 3.22883C11.709 3.26291 12.0814 3.39823 12.3525 3.6353C12.6913 3.90645 12.8943 4.31291 12.962 4.82113L12.2483 4.93999C12.2485 4.94177 12.2487 4.94355 12.2489 4.94533L12.1496 4.95645L12.1331 4.8578L12.1357 4.85738C12.092 4.59988 11.995 4.39584 11.8448 4.24525ZM10.1604 4.30933L10.1605 4.30923C10.2923 4.15094 10.4693 4.03778 10.6948 3.98966V5.90229C10.4387 5.81133 10.2567 5.69825 10.1235 5.56656C9.97283 5.38365 9.91249 5.20446 9.91249 4.95645C9.91249 4.71239 10.0035 4.49737 10.1604 4.30933ZM11.9042 8.78668L11.9801 8.85172L12.0039 7.39015C12.1209 7.53618 12.1849 7.74924 12.1849 8.0047C12.1849 8.32043 12.0912 8.56832 11.9042 8.78668ZM11.3349 9.14082V7.04881C11.6944 7.14422 11.9013 7.26224 12.0039 7.39012L11.3349 9.14082Z" fill="#667085" stroke="#667085" stroke-width="0.2"/>
<g id="Clip path group_3">
<mask id="mask2_168_2140" style="mask-type:luminance" maskUnits="userSpaceOnUse" x="5" y="1" width="12" height="12">
<g id="08ffe1acab">
<path id="Vector_7" d="M5.57397 1.30002H5.47397V1.40002V12.2627V12.3627H5.57397H16.3833H16.4833V12.2627V1.40002V1.30002H16.3833H5.57397Z" fill="white" stroke="white" stroke-width="0.2"/>
</g>
</mask>
<g mask="url(#mask2_168_2140)">
<g id="Group_3">
<path id="Vector_8" d="M14.8935 2.88753L14.8935 2.88752L14.8922 2.88631C13.8925 1.92077 12.5133 1.30002 10.9956 1.30002C9.48004 1.30002 8.0992 1.88578 7.13178 2.88815C6.13197 3.88777 5.51133 5.26783 5.51133 6.78535C5.51133 8.3037 6.13224 9.68351 7.13241 10.6837L7.13365 10.6849C8.13283 11.6499 9.51201 12.2712 11.0297 12.2712C12.5122 12.2712 13.8924 11.6847 14.8935 10.6837L14.8947 10.6824C15.8597 9.68272 16.4804 8.30354 16.4804 6.78535C16.4804 5.26909 15.8943 3.88833 14.8935 2.88753ZM14.1747 3.60335L14.1747 3.60337L14.1762 3.60484C14.9701 4.39829 15.4678 5.52489 15.5016 6.78666C15.5012 8.04469 14.9715 9.17103 14.1762 9.96638L14.1761 9.9664C13.3476 10.7954 12.221 11.2918 10.9956 11.2918C9.73742 11.2918 8.64508 10.796 7.81636 9.96713C7.02056 9.13761 6.52376 8.01106 6.52376 6.78535C6.52376 5.52495 7.02133 4.39861 7.81559 3.60484L7.81564 3.6048C8.64418 2.77576 9.77027 2.27888 10.9956 2.27888C12.2558 2.27888 13.3809 2.77625 14.1747 3.60335Z" fill="#667085" stroke="#667085" stroke-width="0.2"/>
</g>
</g>
</g>
</g>
</g>
<defs>
<clipPath id="clip0_168_2140">
<rect width="24" height="24" fill="white"/>
</clipPath>
</defs>
</svg>
