<svg width="111" height="36" viewBox="0 0 111 36" fill="none" xmlns="http://www.w3.org/2000/svg">
<g clip-path="url(#clip0_126_6064)">
<mask id="mask0_126_6064" style="mask-type:luminance" maskUnits="userSpaceOnUse" x="-60" y="-20" width="231" height="76">
<path d="M-59.7451 55.3815H170.746V-19.3815H-59.7451V55.3815Z" fill="white"/>
</mask>
<g mask="url(#mask0_126_6064)">
<path d="M22.9254 7.07147C21.742 5.72465 19.6029 5.14723 16.8664 5.14723H8.92418C8.65329 5.14709 8.39124 5.24349 8.18519 5.41909C7.97913 5.59469 7.84261 5.83796 7.80018 6.10511L4.49463 27.0494C4.4793 27.1466 4.48525 27.2459 4.51207 27.3405C4.53888 27.4352 4.58593 27.5229 4.64996 27.5976C4.71399 27.6724 4.79349 27.7324 4.88298 27.7735C4.97247 27.8146 5.06982 27.8358 5.16832 27.8358H10.0715L11.303 20.0364L11.2648 20.2807C11.3064 20.0141 11.442 19.771 11.6472 19.5954C11.8524 19.4198 12.1136 19.3231 12.3838 19.3228H14.7139C19.2912 19.3228 22.8752 17.4663 23.9222 12.096C23.9533 11.9371 23.9802 11.7825 24.0035 11.6315C24.3145 9.64654 24.0014 8.29548 22.9261 7.07218" fill="#003087"/>
<path d="M82.9514 17.0379C82.6517 19.0031 81.1488 19.0031 79.6954 19.0031H78.8683L79.4487 15.3339C79.484 15.1122 79.6749 14.9492 79.8997 14.9492H80.2793C81.269 14.9492 82.2035 14.9492 82.6856 15.5118C82.9734 15.8485 83.0603 16.3482 82.9514 17.0379ZM82.3187 11.9104H76.8359C76.6543 11.9104 76.4787 11.9752 76.3406 12.0929C76.2025 12.2106 76.1109 12.3736 76.0823 12.5527L73.8668 26.5906C73.8566 26.6557 73.8606 26.7222 73.8786 26.7856C73.8966 26.849 73.9281 26.9077 73.9709 26.9578C74.0138 27.0079 74.0669 27.0482 74.1268 27.0758C74.1867 27.1034 74.2519 27.1178 74.3178 27.1179H77.1314C77.3936 27.1179 77.617 26.9273 77.658 26.669L78.2872 22.6878C78.3452 22.3186 78.6647 22.0454 79.0394 22.0454H80.7741C84.3865 22.0454 86.4705 20.3012 87.0148 16.8417C87.2601 15.3297 87.0247 14.1409 86.3157 13.3087C85.5359 12.3939 84.1539 11.9096 82.3195 11.9096" fill="#009CDE"/>
<path d="M43.8441 17.0379C43.5444 19.003 42.0415 19.003 40.5874 19.003H39.7603L40.3407 15.3339C40.376 15.1122 40.5669 14.9492 40.7917 14.9492H41.1713C42.161 14.9492 43.0955 14.9492 43.5776 15.5117C43.8661 15.8484 43.953 16.3482 43.8441 17.0379ZM43.2115 11.9103H37.7286C37.3539 11.9103 37.0344 12.1828 36.9757 12.5527L34.7595 26.5906C34.7492 26.6557 34.7531 26.7222 34.7711 26.7857C34.789 26.8491 34.8205 26.9079 34.8633 26.958C34.9062 27.0082 34.9594 27.0484 35.0194 27.076C35.0793 27.1036 35.1445 27.1179 35.2105 27.1179H37.829C38.2036 27.1179 38.5225 26.8454 38.5811 26.4755L39.1799 22.6885C39.2379 22.3186 39.5574 22.0461 39.9321 22.0461H41.6668C45.2792 22.0461 47.3632 20.3012 47.9075 16.8416C48.1528 15.3296 47.9174 14.1409 47.2084 13.3087C46.4286 12.3939 45.0466 11.9096 43.2122 11.9096M55.9409 22.0779C55.6865 23.5758 54.4967 24.5816 52.9775 24.5816C52.2162 24.5816 51.6061 24.3367 51.2145 23.8736C50.8257 23.4148 50.6801 22.7605 50.8031 22.0327C51.0392 20.5475 52.2494 19.5099 53.7453 19.5099C54.4911 19.5099 55.0955 19.7569 55.4956 20.2242C55.8978 20.695 56.0562 21.3529 55.9409 22.0779ZM59.6 16.9743H56.9745C56.8653 16.9742 56.7597 17.0131 56.6767 17.0839C56.5938 17.1547 56.5389 17.2528 56.522 17.3605L56.4075 18.0932L56.2237 17.8277C55.6554 17.004 54.3878 16.728 53.1225 16.728C50.222 16.728 47.7442 18.9233 47.2621 22.0009C47.0111 23.5376 47.3674 25.0052 48.2398 26.0294C49.0407 26.9704 50.1838 27.3621 51.546 27.3621C53.8845 27.3621 55.181 25.8628 55.181 25.8628L55.0637 26.5913C55.0533 26.6565 55.0573 26.7231 55.0752 26.7866C55.0932 26.85 55.1247 26.9089 55.1677 26.959C55.2106 27.0091 55.264 27.0494 55.324 27.0769C55.384 27.1045 55.4493 27.1187 55.5154 27.1186H57.8793C58.254 27.1186 58.5735 26.8468 58.6322 26.4762L60.0517 17.5023C60.0619 17.4371 60.0578 17.3705 60.0398 17.307C60.0217 17.2435 59.9901 17.1847 59.9471 17.1346C59.9041 17.0845 59.8508 17.0443 59.7907 17.0167C59.7307 16.9892 59.6653 16.975 59.5993 16.975" fill="#003087"/>
<path d="M95.0484 22.0779C94.7939 23.5758 93.6042 24.5816 92.085 24.5816C91.3236 24.5816 90.7136 24.3367 90.3219 23.8736C89.9331 23.4148 89.7875 22.7605 89.9105 22.0327C90.1466 20.5475 91.3562 19.5099 92.8527 19.5099C93.5985 19.5099 94.2029 19.7569 94.603 20.2242C95.0053 20.695 95.1636 21.3529 95.0484 22.0779ZM98.7074 16.9743H96.0819C95.9728 16.9742 95.8672 17.0131 95.7842 17.0839C95.7012 17.1547 95.6463 17.2528 95.6295 17.3605L95.515 18.0932L95.3312 17.8277C94.7628 17.004 93.4953 16.728 92.2299 16.728C89.3301 16.728 86.8524 18.9233 86.3695 22.0009C86.1186 23.5376 86.4756 25.0052 87.3479 26.0294C88.1489 26.9704 89.292 27.3621 90.6542 27.3621C92.9934 27.3621 94.2899 25.8628 94.2899 25.8628L94.1725 26.5913C94.162 26.6564 94.1657 26.723 94.1835 26.7865C94.2013 26.8499 94.2327 26.9088 94.2755 26.959C94.3183 27.0091 94.3716 27.0494 94.4316 27.077C94.4915 27.1045 94.5568 27.1187 94.6228 27.1186H96.9861C97.3607 27.1186 97.6803 26.8468 97.7396 26.4762L99.1591 17.5023C99.1693 17.4371 99.1653 17.3705 99.1472 17.307C99.1292 17.2435 99.0976 17.1847 99.0546 17.1346C99.0116 17.0845 98.9582 17.0443 98.8982 17.0167C98.8381 16.9892 98.7728 16.975 98.7067 16.975" fill="#009CDE"/>
<path d="M73.5833 16.9751H70.9437C70.6913 16.9751 70.4559 17.1 70.3145 17.3089L66.6739 22.6624L65.1307 17.5179C65.0836 17.361 64.9872 17.2234 64.8556 17.1255C64.7241 17.0276 64.5645 16.9746 64.4004 16.9743H61.8068C61.734 16.9744 61.6624 16.9917 61.5977 17.025C61.533 17.0582 61.4772 17.1064 61.4349 17.1654C61.3926 17.2245 61.365 17.2928 61.3545 17.3647C61.3439 17.4365 61.3506 17.5099 61.3741 17.5786L64.2796 26.0958L61.5466 29.9464C61.4983 30.0147 61.4698 30.095 61.464 30.1785C61.4583 30.2619 61.4756 30.3453 61.5142 30.4196C61.5527 30.4939 61.6109 30.5562 61.6824 30.5997C61.754 30.6432 61.8361 30.6663 61.9199 30.6664H64.5567C64.8055 30.6664 65.0395 30.5443 65.1823 30.3396L73.958 17.6915C74.0056 17.6232 74.0336 17.5431 74.0389 17.4599C74.0442 17.3768 74.0266 17.2938 73.988 17.22C73.9494 17.1462 73.8912 17.0843 73.8199 17.0411C73.7486 16.9979 73.6667 16.9751 73.5833 16.9751Z" fill="#003087"/>
<path d="M101.801 12.2964L99.5504 26.5913C99.5402 26.6564 99.5443 26.723 99.5623 26.7864C99.5803 26.8499 99.6118 26.9087 99.6547 26.9588C99.6977 27.0089 99.7509 27.0491 99.8109 27.0767C99.8709 27.1043 99.9361 27.1186 100.002 27.1186H102.265C102.64 27.1186 102.959 26.8461 103.018 26.4762L105.237 12.4376C105.247 12.3725 105.243 12.3058 105.225 12.2424C105.207 12.1789 105.176 12.12 105.133 12.0699C105.09 12.0198 105.037 11.9795 104.977 11.952C104.917 11.9244 104.851 11.9102 104.785 11.9103H102.253C102.144 11.91 102.038 11.9488 101.956 12.0195C101.873 12.0902 101.818 12.1889 101.801 12.2964Z" fill="#009CDE"/>
<path d="M22.9254 7.07147C21.742 5.72465 19.6029 5.14723 16.8664 5.14723H8.92418C8.65329 5.14709 8.39124 5.24349 8.18519 5.41909C7.97913 5.59469 7.84261 5.83796 7.80018 6.10511L4.49463 27.0494C4.4793 27.1466 4.48525 27.2459 4.51207 27.3405C4.53888 27.4352 4.58593 27.5229 4.64996 27.5976C4.71399 27.6724 4.79349 27.7324 4.88298 27.7735C4.97247 27.8146 5.06982 27.8358 5.16832 27.8358H10.0715L11.303 20.0364L11.2648 20.2807C11.3064 20.0141 11.442 19.771 11.6472 19.5954C11.8524 19.4198 12.1136 19.3231 12.3838 19.3228H14.7139C19.2912 19.3228 22.8752 17.4663 23.9222 12.096C23.9533 11.9371 23.9802 11.7825 24.0035 11.6315C24.3145 9.64654 24.0014 8.29548 22.9261 7.07218" fill="#003087"/>
<path d="M12.6255 11.6576C12.6626 11.4242 12.7819 11.2116 12.9618 11.0581C13.1418 10.9045 13.3707 10.82 13.6074 10.8197H19.8339C20.5712 10.8197 21.2591 10.8678 21.8875 10.968C22.2311 11.0232 22.5711 11.0991 22.9055 11.1953C23.2853 11.3019 23.6528 11.4481 24.0019 11.6315C24.3144 9.64587 24.0005 8.29551 22.9253 7.07151C21.7412 5.72539 19.6027 5.14797 16.8663 5.14797H8.92332C8.65267 5.14816 8.39096 5.24472 8.1852 5.42029C7.97944 5.59586 7.84312 5.83894 7.80073 6.10586L4.49376 27.048C4.47833 27.1452 4.48418 27.2445 4.5109 27.3392C4.53763 27.4339 4.58459 27.5217 4.64856 27.5965C4.71253 27.6713 4.79198 27.7313 4.88144 27.7725C4.9709 27.8137 5.06824 27.8351 5.16675 27.8351H10.0707L11.3021 20.0351L12.6255 11.6576Z" fill="#003087"/>
<path d="M24.0023 11.6308C23.978 11.7861 23.9509 11.941 23.921 12.0953C22.874 17.4649 19.2899 19.3221 14.7126 19.3221H12.3819C12.1117 19.3223 11.8505 19.419 11.6454 19.5946C11.4403 19.7703 11.3049 20.0134 11.2636 20.28L10.0703 27.8344L9.73098 29.9774C9.71748 30.0625 9.72263 30.1495 9.74606 30.2324C9.76948 30.3153 9.81064 30.3922 9.86668 30.4576C9.92272 30.5231 9.99232 30.5757 10.0707 30.6117C10.149 30.6478 10.2343 30.6664 10.3205 30.6664H14.4539C14.9431 30.6664 15.3588 30.3106 15.4358 29.8285L15.4761 29.6181L16.2551 24.6883L16.3046 24.4158C16.3417 24.1822 16.461 23.9694 16.6411 23.8158C16.8212 23.6622 17.0504 23.5778 17.2872 23.5779H17.9058C21.9098 23.5779 25.045 21.9544 25.9611 17.256C26.3429 15.2936 26.1449 13.6539 25.134 12.5026C24.8131 12.1456 24.4295 11.8502 24.0023 11.6308Z" fill="#009CDE"/>
<path d="M22.9059 11.1953C22.7462 11.148 22.5815 11.1057 22.4118 11.0682C22.2421 11.0308 22.0668 10.9977 21.8873 10.9694C21.2581 10.8671 20.571 10.8191 19.8329 10.8191H13.6071C13.3701 10.8188 13.1409 10.9032 12.9608 11.057C12.7807 11.2108 12.6617 11.4238 12.6252 11.6577L11.3018 20.0365L11.2637 20.28C11.305 20.0134 11.4404 19.7703 11.6455 19.5947C11.8506 19.419 12.1118 19.3223 12.382 19.3221H14.7127C19.29 19.3221 22.8741 17.4657 23.9211 12.0953C23.9522 11.9365 23.9783 11.7826 24.0024 11.6308C23.7259 11.4864 23.4379 11.365 23.1413 11.268C23.0643 11.2426 22.9858 11.2193 22.9059 11.1953Z" fill="#012169"/>
</g>
</g>
<defs>
<clipPath id="clip0_126_6064">
<rect width="111" height="36" fill="white"/>
</clipPath>
</defs>
</svg>
