<svg width="45" height="43" viewBox="0 0 45 43" fill="none" xmlns="http://www.w3.org/2000/svg">
<g id="Icon/people">
<path id="Vector" d="M33.1245 14.0732C33.0693 14.0732 33.0325 14.0732 32.9773 14.0732H32.8852C29.4071 13.9664 26.8124 11.3688 26.8124 8.16633C26.8124 4.89266 29.5728 2.2417 32.9405 2.2417C36.3081 2.2417 39.0685 4.91045 39.0685 8.16633C39.0501 11.3866 36.4554 13.9842 33.1429 14.091C33.1429 14.0732 33.1429 14.0732 33.1245 14.0732ZM32.9405 4.89267C31.0818 4.89267 29.5728 6.35159 29.5728 8.14855C29.5728 9.90992 30.9898 11.3333 32.8116 11.4044C32.83 11.3866 32.9773 11.3866 33.1429 11.4044C34.9279 11.3155 36.3081 9.89213 36.3265 8.14855C36.3265 6.35159 34.8175 4.89267 32.9405 4.89267Z" fill="#14CC26"/>
<path id="Vector_2" d="M33.1434 27.1858C32.4257 27.1858 31.708 27.1324 30.9903 27.0078C30.2358 26.8833 29.7389 26.1894 29.8678 25.46C29.9966 24.7305 30.7143 24.2501 31.4688 24.3747C33.7323 24.7483 36.1247 24.3391 37.7257 23.3072C38.5906 22.7556 39.0507 22.0617 39.0507 21.3679C39.0507 20.674 38.5722 19.9979 37.7257 19.4464C36.1247 18.4144 33.6955 18.0052 31.4136 18.3967C30.6591 18.539 29.9414 18.0408 29.8125 17.3114C29.6837 16.5819 30.1806 15.888 30.9351 15.7635C33.9347 15.2475 37.0448 15.7991 39.2531 17.2224C40.8725 18.2721 41.8111 19.7666 41.8111 21.3679C41.8111 22.9513 40.8909 24.4636 39.2531 25.5311C37.5785 26.5986 35.4069 27.1858 33.1434 27.1858Z" fill="#14CC26"/>
<path id="Vector_3" d="M10.9864 14.0731C10.968 14.0731 10.9496 14.0731 10.9496 14.0731C7.63713 13.9664 5.04236 11.3688 5.02396 8.16629C5.02396 4.89262 7.78436 2.22388 11.152 2.22388C14.5197 2.22388 17.2801 4.89263 17.2801 8.14851C17.2801 11.3688 14.6853 13.9664 11.3729 14.0731L10.9864 12.7388L11.1152 14.0731C11.0784 14.0731 11.0232 14.0731 10.9864 14.0731ZM11.1704 11.4044C11.2809 11.4044 11.3729 11.4044 11.4833 11.4222C13.1211 11.351 14.5565 9.92766 14.5565 8.16629C14.5565 6.36933 13.0475 4.91041 11.1888 4.91041C9.33018 4.91041 7.82116 6.36933 7.82116 8.16629C7.82116 9.90987 9.21976 11.3154 11.0048 11.4222C11.0232 11.4044 11.0968 11.4044 11.1704 11.4044Z" fill="#14CC26"/>
<path id="Vector_4" d="M10.9681 27.1858C8.70453 27.1858 6.53302 26.5986 4.85838 25.5311C3.23895 24.4814 2.30042 22.9691 2.30042 21.3679C2.30042 19.7844 3.23895 18.2721 4.85838 17.2224C7.0667 15.7991 10.1767 15.2475 13.1764 15.7635C13.9309 15.888 14.4278 16.5819 14.2989 17.3114C14.1701 18.0408 13.4524 18.539 12.6979 18.3967C10.416 18.0052 8.00524 18.4144 6.3858 19.4464C5.52088 19.9979 5.06081 20.674 5.06081 21.3679C5.06081 22.0617 5.53928 22.7556 6.3858 23.3072C7.98683 24.3391 10.3792 24.7483 12.6427 24.3747C13.3972 24.2501 14.1149 24.7483 14.2437 25.46C14.3726 26.1894 13.8757 26.8833 13.1212 27.0078C12.4035 27.1324 11.6858 27.1858 10.9681 27.1858Z" fill="#14CC26"/>
<path id="Vector_5" d="M22.0829 27.3636C22.0277 27.3636 21.9909 27.3636 21.9357 27.3636H21.8437C18.3656 27.2568 15.7708 24.6592 15.7708 21.4567C15.7708 18.1831 18.5312 15.5321 21.8989 15.5321C25.2666 15.5321 28.027 18.2009 28.027 21.4567C28.0086 24.677 25.4138 27.2746 22.1013 27.3814C22.1013 27.3636 22.1013 27.3636 22.0829 27.3636ZM21.8989 18.1831C20.0402 18.1831 18.5312 19.642 18.5312 21.439C18.5312 23.2003 19.9482 24.6237 21.7701 24.6948C21.7885 24.677 21.9357 24.677 22.1013 24.6948C23.8864 24.6059 25.2666 23.1825 25.285 21.439C25.285 19.6598 23.776 18.1831 21.8989 18.1831Z" fill="#14CC26"/>
<path id="Vector_6" d="M22.0826 40.4938C19.8742 40.4938 17.6659 39.9423 15.9545 38.8214C14.335 37.7717 13.3965 36.2772 13.3965 34.6759C13.3965 33.0925 14.3166 31.5624 15.9545 30.5127C19.3958 28.3065 24.7878 28.3065 28.2106 30.5127C29.8301 31.5624 30.7686 33.0569 30.7686 34.6581C30.7686 36.2416 29.8485 37.7717 28.2106 38.8214C26.4992 39.9245 24.2909 40.4938 22.0826 40.4938ZM17.4819 32.7544C16.617 33.306 16.1569 33.9998 16.1569 34.6937C16.1569 35.3876 16.6354 36.0637 17.4819 36.6152C19.9663 38.2343 24.1805 38.2343 26.6648 36.6152C27.5298 36.0637 27.9898 35.3698 27.9898 34.6759C27.9898 33.9821 27.5113 33.306 26.6648 32.7544C24.1989 31.1354 19.9847 31.1532 17.4819 32.7544Z" fill="#14CC26"/>
</g>
</svg>
