<svg width="35" height="35" viewBox="0 0 35 35" fill="none" xmlns="http://www.w3.org/2000/svg">
<g id="image">
<path id="Vector" d="M27.664 4.43176H7.33568C5.73182 4.43176 4.43164 5.73195 4.43164 7.3358V27.6641C4.43164 29.2679 5.73182 30.5681 7.33568 30.5681H27.664C29.2678 30.5681 30.568 29.2679 30.568 27.6641V7.3358C30.568 5.73195 29.2678 4.43176 27.664 4.43176Z" stroke="#5C5C5B" stroke-width="2" stroke-linecap="round" stroke-linejoin="round"/>
<path id="Vector_2" d="M12.4173 14.5959C13.6202 14.5959 14.5953 13.6208 14.5953 12.4179C14.5953 11.215 13.6202 10.2399 12.4173 10.2399C11.2144 10.2399 10.2393 11.215 10.2393 12.4179C10.2393 13.6208 11.2144 14.5959 12.4173 14.5959Z" stroke="#5C5C5B" stroke-width="2" stroke-linecap="round" stroke-linejoin="round"/>
<path id="Vector_3" d="M30.5673 21.8559L23.3072 14.5958L7.33496 30.568" stroke="#5C5C5B" stroke-width="2" stroke-linecap="round" stroke-linejoin="round"/>
</g>
</svg>
