<svg width="24" height="24" viewBox="0 0 24 24" fill="none" xmlns="http://www.w3.org/2000/svg">
<g id="users-01" clip-path="url(#clip0_168_2046)">
<g id="Group 1000003692">
<g id="Clip path group">
<mask id="mask0_168_2046" style="mask-type:luminance" maskUnits="userSpaceOnUse" x="0" y="0" width="25" height="24">
<g id="6c0b10b493">
<path id="Vector" d="M1 0.300024H0.9V0.400024V23.4V23.5H1H24.0032H24.1032V23.4V0.400024V0.300024H24.0032H1Z" fill="white" stroke="white" stroke-width="0.2"/>
</g>
</mask>
<g mask="url(#mask0_168_2046)">
<g id="Group">
<path id="Vector_2" d="M17.5692 10.4728C18.2524 10.4728 18.8992 10.7424 19.3848 11.2637M17.5692 10.4728L13.9035 10.5085C13.7417 10.5085 13.5977 10.5627 13.5079 10.6525C13.4721 10.6883 13.418 10.7603 13.418 10.8501C13.418 11.0477 13.634 11.2095 13.9035 11.2095V11.1095M17.5692 10.4728V10.5728M17.5692 10.4728L19.3848 11.2637M19.3848 11.2637C19.7079 11.6047 20.0495 11.7665 20.4988 11.7665C20.5708 11.7665 20.6427 11.7665 20.7142 11.7487L19.3848 11.2637ZM13.9035 11.1095L16.67 11.0917L16.6707 11.0917C16.8382 11.0917 16.9741 11.1877 17.0597 11.3158L17.0633 11.3212L17.0631 11.3213L18.1235 13.1542L18.1244 13.1557L18.1243 13.1557C18.238 13.3604 18.1746 13.6568 17.9429 13.7765C17.8716 13.8219 17.7832 13.8434 17.7132 13.8434C17.5538 13.8434 17.4112 13.7723 17.3209 13.613L16.3971 11.9926H15.647H15.6465L13.9224 12.0105L13.9214 12.0105C13.2343 12.0105 12.6191 11.5132 12.617 10.8534C12.5981 10.5525 12.7195 10.2748 12.9344 10.0605L12.9371 10.0577L12.9371 10.0578C13.187 9.82708 13.5343 9.67186 13.9034 9.67183L13.9031 9.67183L13.9035 9.77183V9.67183L17.5872 9.65397L17.5876 9.65397C18.4965 9.65397 19.3674 10.0434 19.9966 10.7094L20.0004 10.7135L20.0003 10.7136C20.0914 10.8215 20.1767 10.8852 20.2726 10.9203C20.3697 10.9558 20.4875 10.9655 20.6501 10.9482L20.6606 10.9471V10.9477H20.6765L21.0278 10.9337V10.6525C21.0278 10.2016 21.3963 9.83368 21.8466 9.83368H23.2843C23.7346 9.83368 24.1032 10.2016 24.1032 10.6525V16.7627C24.1032 17.2131 23.7347 17.5816 23.2843 17.5816H21.8466C21.3962 17.5816 21.0278 17.2131 21.0278 16.7627V16.3728L20.7303 16.3593H20.7142H20.7037L20.7038 16.3588C20.5415 16.3418 20.4236 16.3516 20.3264 16.3872C20.2303 16.4223 20.1449 16.4859 20.0538 16.5935L20.0522 16.5954C19.4415 17.2808 18.57 17.6892 17.6596 17.6893C17.6594 17.6893 17.6593 17.6893 17.6591 17.6893L16.1958 17.706V18.4879C16.1958 18.6048 16.1491 18.7198 16.0591 18.81C16.059 18.8101 16.0589 18.8102 16.0588 18.8103L11.5844 23.3561L11.5839 23.3567C11.4939 23.4467 11.3789 23.4942 11.2615 23.4942H2.07827C1.43194 23.4942 0.9 22.9839 0.9 22.3338V1.46934C0.9 0.837639 1.43087 0.308936 2.07827 0.308936H15.0175C15.6649 0.308936 16.1958 0.837639 16.1958 1.46934V9.03512V9.13512H16.0958H15.377H15.277V9.03512V1.46934C15.277 1.34812 15.1632 1.22778 15.0175 1.22778H2.07827C1.93261 1.22778 1.81885 1.34812 1.81885 1.46934V22.3517C1.81885 22.4729 1.93261 22.5932 2.07827 22.5932H10.9639V19.0811C10.9639 18.4349 11.4735 17.9207 12.088 17.9207H15.277V12.6294V12.5294H15.377H16.0417H16.1034L16.1311 12.5845L16.1852 12.6922L16.1958 12.7134V12.7371V16.8222L17.6568 16.7884L17.6591 16.7883C18.3128 16.7883 18.915 16.5138 19.3639 16.0129L19.3644 16.0123C19.5526 15.8054 19.7585 15.6559 19.9936 15.5663C20.2281 15.4769 20.4859 15.4491 20.7756 15.477L21.0278 15.4895V11.8352L20.7281 11.8482C20.6482 11.8666 20.5696 11.8665 20.5033 11.8665H20.4988C20.0189 11.8665 19.6519 11.691 19.3122 11.3324L19.3116 11.3318C18.8455 10.8314 18.2255 10.5729 17.5697 10.5728C17.5696 10.5728 17.5694 10.5728 17.5692 10.5728M13.9035 11.1095C13.9035 11.1095 13.9034 11.1095 13.9033 11.1095M13.9035 11.1095H13.9033M17.5692 10.5728L13.9045 10.6085L13.9035 10.6086C13.762 10.6085 13.6457 10.6561 13.5786 10.7232C13.5504 10.7514 13.518 10.7992 13.518 10.8501C13.518 10.9099 13.5505 10.9725 13.6193 11.0236C13.688 11.0747 13.7879 11.1095 13.9033 11.1095M17.5692 10.5728L13.9033 11.1095M14.778 18.8396L11.8827 21.7668V19.0811C11.8827 18.9457 11.9923 18.8396 12.088 18.8396H14.778ZM23.1843 16.6627H21.9466V10.7525H23.1843V16.6627Z" fill="#667085" stroke="#667085" stroke-width="0.2"/>
</g>
</g>
</g>
<path id="Vector_3" d="M11.4227 3.20471C11.6755 3.20471 11.8821 2.9981 11.8821 2.74529C11.8821 2.49248 11.6755 2.28586 11.4227 2.28586H5.67192C5.41912 2.28586 5.2125 2.49248 5.2125 2.74529C5.2125 2.9981 5.41912 3.20471 5.67192 3.20471H11.4227Z" fill="#667085" stroke="#667085" stroke-width="0.2"/>
<path id="Vector_4" d="M13.9395 4.44236H6.75103C6.49822 4.44236 6.2916 4.64898 6.2916 4.90178C6.2916 5.15459 6.49822 5.36121 6.75103 5.36121H13.9395C14.1923 5.36121 14.3989 5.15459 14.3989 4.90178C14.3989 4.64898 14.1923 4.44236 13.9395 4.44236Z" fill="#667085" stroke="#667085" stroke-width="0.2"/>
<path id="Vector_5" d="M13.9395 5.87998H6.75103C6.49822 5.87998 6.2916 6.0866 6.2916 6.3394C6.2916 6.59221 6.49822 6.79883 6.75103 6.79883H13.9395C14.1923 6.79883 14.3989 6.59221 14.3989 6.3394C14.3989 6.0866 14.1923 5.87998 13.9395 5.87998Z" fill="#667085" stroke="#667085" stroke-width="0.2"/>
<path id="Vector_6" d="M14.3989 8.49602C14.3989 8.24321 14.1923 8.0366 13.9395 8.0366H6.75103C6.49822 8.0366 6.2916 8.24321 6.2916 8.49602C6.2916 8.74883 6.49822 8.95545 6.75103 8.95545H13.9395C14.1923 8.95545 14.3989 8.74883 14.3989 8.49602Z" fill="#667085" stroke="#667085" stroke-width="0.2"/>
<path id="Vector_7" d="M13.9395 13.0686H6.75103C6.49822 13.0686 6.2916 13.2752 6.2916 13.528C6.2916 13.7808 6.49822 13.9874 6.75103 13.9874H13.9395C14.1923 13.9874 14.3989 13.7808 14.3989 13.528C14.3989 13.2752 14.1923 13.0686 13.9395 13.0686Z" fill="#667085" stroke="#667085" stroke-width="0.2"/>
<path id="Vector_8" d="M13.9395 15.2251H6.75103C6.49822 15.2251 6.2916 15.4317 6.2916 15.6845C6.2916 15.9373 6.49822 16.1439 6.75103 16.1439H13.9395C14.1923 16.1439 14.3989 15.9373 14.3989 15.6845C14.3989 15.4317 14.1923 15.2251 13.9395 15.2251Z" fill="#667085" stroke="#667085" stroke-width="0.2"/>
<path id="Vector_9" d="M14.3989 17.1222C14.3989 16.8694 14.1923 16.6628 13.9395 16.6628H6.75103C6.49822 16.6628 6.2916 16.8694 6.2916 17.1222C6.2916 17.375 6.49822 17.5817 6.75103 17.5817H13.9395C14.1923 17.5817 14.3989 17.375 14.3989 17.1222Z" fill="#667085" stroke="#667085" stroke-width="0.2"/>
<path id="Vector_10" d="M12.3184 11.6801L12.2894 11.6308H12.2322H6.75103C6.49822 11.6308 6.2916 11.8375 6.2916 12.0903C6.2916 12.3431 6.49822 12.5497 6.75103 12.5497H13.041L13.0838 12.3593C12.7582 12.2051 12.4869 11.9663 12.3184 11.6801Z" fill="#667085" stroke="#667085" stroke-width="0.2"/>
<path id="Vector_11" d="M12.0704 10.3932H12.1391L12.1637 10.3291C12.2507 10.1028 12.3697 9.88542 12.5512 9.72031L12.5514 9.72045L12.5555 9.71622C12.5555 9.71623 12.557 9.71488 12.5618 9.71106C12.5628 9.71033 12.5639 9.70943 12.5652 9.7084C12.5701 9.70462 12.5773 9.69907 12.5838 9.69363C12.6015 9.67888 12.6267 9.65531 12.6449 9.62011L12.7199 9.47434H12.5559H6.75103C6.49822 9.47434 6.2916 9.68096 6.2916 9.93377C6.2916 10.1866 6.49822 10.3932 6.75103 10.3932H12.0704Z" fill="#667085" stroke="#667085" stroke-width="0.2"/>
<path id="Vector_12" d="M2.79692 21.5353H7.82886C8.08167 21.5353 8.28829 21.3287 8.28829 21.0759C8.28829 20.823 8.08167 20.6164 7.82886 20.6164H2.79692C2.54412 20.6164 2.3375 20.823 2.3375 21.0759C2.3375 21.3287 2.54412 21.5353 2.79692 21.5353Z" fill="#667085" stroke="#667085" stroke-width="0.2"/>
<path id="Vector_13" d="M3.8752 7.15838C4.72126 7.15838 5.41289 6.46675 5.41289 5.62068C5.41289 4.77461 4.72126 4.08298 3.8752 4.08298C3.02913 4.08298 2.3375 4.77461 2.3375 5.62068C2.3375 6.46675 3.02913 7.15838 3.8752 7.15838ZM3.8752 5.00183C4.21517 5.00183 4.49405 5.28027 4.49405 5.62068C4.49405 5.96061 4.21513 6.23953 3.8752 6.23953C3.53527 6.23953 3.25635 5.96061 3.25635 5.62068C3.25635 5.28027 3.53522 5.00183 3.8752 5.00183Z" fill="#667085" stroke="#667085" stroke-width="0.2"/>
<path id="Vector_14" d="M3.8752 10.7526C4.72126 10.7526 5.41289 10.061 5.41289 9.21492C5.41289 8.36885 4.72126 7.67722 3.8752 7.67722C3.02913 7.67722 2.3375 8.36885 2.3375 9.21492C2.3375 10.061 3.02913 10.7526 3.8752 10.7526ZM3.8752 8.59607C4.21517 8.59607 4.49405 8.87451 4.49405 9.21492C4.49405 9.55485 4.21513 9.83377 3.8752 9.83377C3.53527 9.83377 3.25635 9.55485 3.25635 9.21492C3.25635 8.87451 3.53522 8.59607 3.8752 8.59607Z" fill="#667085" stroke="#667085" stroke-width="0.2"/>
<path id="Vector_15" d="M3.8752 14.3469C4.72126 14.3469 5.41289 13.6552 5.41289 12.8092C5.41289 11.9631 4.72126 11.2715 3.8752 11.2715C3.02913 11.2715 2.3375 11.9631 2.3375 12.8092C2.3375 13.6552 3.02913 14.3469 3.8752 14.3469ZM3.8752 12.1903C4.21517 12.1903 4.49405 12.4688 4.49405 12.8092C4.49405 13.1491 4.21513 13.428 3.8752 13.428C3.53527 13.428 3.25635 13.1491 3.25635 12.8092C3.25635 12.4688 3.53522 12.1903 3.8752 12.1903Z" fill="#667085" stroke="#667085" stroke-width="0.2"/>
<path id="Vector_16" d="M3.8752 17.941C4.72126 17.941 5.41289 17.2493 5.41289 16.4033C5.41289 15.5572 4.72126 14.8656 3.8752 14.8656C3.02913 14.8656 2.3375 15.5572 2.3375 16.4033C2.3375 17.2493 3.02913 17.941 3.8752 17.941ZM3.8752 15.7844C4.21517 15.7844 4.49405 16.0629 4.49405 16.4033C4.49405 16.7432 4.21513 17.0221 3.8752 17.0221C3.53527 17.0221 3.25635 16.7432 3.25635 16.4033C3.25635 16.0629 3.53522 15.7844 3.8752 15.7844Z" fill="#667085" stroke="#667085" stroke-width="0.2"/>
</g>
</g>
<defs>
<clipPath id="clip0_168_2046">
<rect width="24" height="24" fill="white"/>
</clipPath>
</defs>
</svg>
