<svg width="36" height="36" viewBox="0 0 36 36" fill="none" xmlns="http://www.w3.org/2000/svg">
<g id="Group 1000003704">
<path id="Vector" d="M10.2896 30.8055C9.2877 31.8065 5.63848 32.8838 3.59501 33.427C2.95539 33.5972 2.37161 33.0138 2.54223 32.3747C3.08716 30.3339 4.16674 26.6896 5.16815 25.6886C6.58228 24.2758 8.87543 24.2727 10.2896 25.6855C11.7068 27.1018 11.7037 29.3928 10.2896 30.8055Z" fill="#FFC536"/>
<path id="Vector_2" d="M10.2905 28.6047C9.77322 29.1215 8.02008 29.6736 6.82794 30.0032C6.30401 30.1479 5.82474 29.6687 5.96991 29.1456C6.30088 27.9553 6.85385 26.2044 7.37063 25.688C8.17686 24.8823 9.48423 24.8805 10.2905 25.6858C11.0985 26.4934 11.0967 27.7994 10.2905 28.6047Z" fill="#F34624"/>
<path id="Vector_3" d="M14.3734 27.1138L12.635 28.8504C12.3411 29.1443 11.864 29.1443 11.5697 28.8504L7.12498 24.4097C6.83108 24.1158 6.83108 23.6392 7.12498 23.3453L8.86339 21.6083L14.3734 27.1138Z" fill="#2C3642"/>
<path id="Vector_4" d="M22.725 31.8485C20.2671 33.8642 16.8582 35.2815 13.4251 35.7541C12.6796 35.8563 12.1856 35.03 12.6167 34.4136C14.4524 31.7895 15.5579 28.9005 15.8916 26.0834L25.1933 19.2522C27.2368 23.6272 27.1555 28.2194 22.725 31.8485Z" fill="#F34624"/>
<path id="Vector_5" d="M16.5241 10.5901L9.68702 19.8842C6.87038 20.2205 3.97692 21.3233 1.34966 23.1564C0.732823 23.587 -0.0943917 23.0935 0.00878683 22.3484C0.4818 18.919 1.90263 15.515 3.91706 13.0566C7.54931 8.6297 12.1486 8.55198 16.5241 10.5901Z" fill="#F34624"/>
<path id="Vector_6" d="M27.0027 20.7543L15.3047 28.2622C14.7088 28.645 13.9263 28.561 13.4251 28.0603L7.91378 22.5539C7.41307 22.0532 7.32865 21.2715 7.71189 20.6757L15.2261 8.98792C15.9934 7.79578 16.8774 6.69923 17.852 5.72551C21.9108 1.67073 27.5914 -0.429466 33.3721 0.0734734C34.7366 0.192285 35.8108 1.27008 35.9283 2.63328C36.5443 9.79236 33.159 16.8013 27.0027 20.7543Z" fill="#EDEDED"/>
<path id="Vector_7" d="M35.0502 10.2953C35.8376 7.85608 36.1539 5.25518 35.9279 2.63284C35.8108 1.26963 34.7366 0.192287 33.3725 0.0739218C30.7439 -0.155215 28.1377 0.159681 25.6931 0.946696L35.0502 10.2953Z" fill="#F34624"/>
<path id="Vector_8" d="M27.5257 15.4649C25.5868 17.4021 22.453 17.4021 20.5203 15.4707C18.5814 13.5336 18.5814 10.4025 20.5203 8.46486C22.453 6.53395 25.5868 6.53395 27.5257 8.47111C29.4589 10.4025 29.4589 13.5336 27.5257 15.4649Z" fill="#2C3642"/>
<path id="Vector_9" d="M27.8013 11.5108C27.8165 11.6345 27.8254 11.7587 27.8281 11.8828C27.8308 12.0074 27.8277 12.1316 27.8183 12.2558C27.8089 12.38 27.7933 12.5032 27.7718 12.6261C27.75 12.7485 27.7227 12.8699 27.6892 12.9896C27.6557 13.1094 27.6164 13.2277 27.5713 13.3434C27.5262 13.4595 27.4757 13.573 27.4194 13.6842C27.3632 13.7954 27.3015 13.9035 27.2345 14.0085C27.1675 14.1134 27.0961 14.2148 27.0192 14.3127C26.942 14.4109 26.8607 14.5047 26.7745 14.5949C26.6887 14.6847 26.598 14.7705 26.5038 14.8513C26.4091 14.9326 26.3108 15.009 26.209 15.0805C26.1067 15.1519 26.0017 15.218 25.8932 15.2792C25.7847 15.3404 25.6734 15.3958 25.5595 15.4463C25.4452 15.4963 25.3291 15.541 25.2107 15.5798C25.0923 15.6182 24.9722 15.6513 24.8507 15.6785C24.7292 15.7053 24.6064 15.7263 24.4826 15.7415C24.3594 15.7563 24.2352 15.7652 24.1106 15.7679C23.986 15.771 23.8613 15.7674 23.7372 15.758C23.613 15.7487 23.4897 15.733 23.3669 15.7116C23.2441 15.6902 23.123 15.6625 23.0029 15.629C22.8827 15.5959 22.7648 15.5566 22.6487 15.5115C22.5325 15.4664 22.4191 15.4159 22.3079 15.3596C22.1966 15.3033 22.0885 15.2417 21.9831 15.1752C21.8782 15.1082 21.7768 15.0362 21.6785 14.9594C21.5807 14.883 21.4864 14.8013 21.3962 14.7155C21.3064 14.6293 21.2207 14.5391 21.1394 14.4449C21.0585 14.3502 20.9822 14.2524 20.9107 14.1501C20.8388 14.0482 20.7727 13.9433 20.7115 13.8347C20.6503 13.7262 20.5945 13.615 20.5444 13.5011C20.494 13.3872 20.4493 13.271 20.4109 13.1531C20.372 13.0348 20.339 12.9146 20.3117 12.7931C20.2849 12.6716 20.2639 12.5492 20.2488 12.4255C20.234 12.3022 20.2251 12.1781 20.222 12.0534C20.2193 11.9293 20.2228 11.8047 20.2322 11.6809C20.2416 11.5568 20.2572 11.433 20.2787 11.3107C20.3001 11.1883 20.3278 11.0668 20.3613 10.9471C20.3948 10.8269 20.4337 10.709 20.4788 10.5929C20.5239 10.4767 20.5748 10.3633 20.6311 10.2525C20.6874 10.1413 20.7486 10.0332 20.8156 9.92824C20.8826 9.82327 20.9545 9.72144 21.0313 9.62362C21.1081 9.5258 21.1894 9.43155 21.2756 9.34177C21.3618 9.252 21.4521 9.16624 21.5467 9.08494C21.641 9.0041 21.7393 8.92772 21.8415 8.85625C21.9434 8.78479 22.0488 8.71868 22.1573 8.65749C22.2659 8.5963 22.3771 8.54047 22.491 8.49044C22.6049 8.44041 22.721 8.39575 22.8394 8.35689C22.9577 8.31803 23.0779 8.28542 23.1994 8.25818C23.3209 8.23138 23.4437 8.21038 23.5674 8.1952C23.6912 8.18001 23.8153 8.17152 23.94 8.1684C24.0641 8.16572 24.1887 8.16884 24.3129 8.17867C24.4371 8.18805 24.5608 8.20324 24.6832 8.22512C24.806 8.24656 24.9275 8.27381 25.0472 8.30731C25.1674 8.34081 25.2853 8.38011 25.4014 8.42523C25.5176 8.47034 25.6315 8.52081 25.7427 8.57709C25.8539 8.63337 25.962 8.69456 26.0669 8.76156C26.1719 8.82811 26.2738 8.90003 26.3716 8.97685C26.4698 9.05368 26.5636 9.13497 26.6539 9.22118C26.7441 9.30738 26.8294 9.39761 26.9107 9.49185C26.992 9.5861 27.0684 9.68436 27.1398 9.7862C27.2113 9.88804 27.2774 9.99345 27.3386 10.102C27.3998 10.2101 27.4556 10.3213 27.5061 10.4352C27.5561 10.5491 27.6008 10.6652 27.6396 10.7836C27.6785 10.902 27.7111 11.0217 27.7383 11.1432C27.7656 11.2646 27.7866 11.3875 27.8013 11.5108Z" fill="#00AEFF"/>
</g>
</svg>
