<svg width="24" height="24" viewBox="0 0 24 24" fill="none" xmlns="http://www.w3.org/2000/svg">
<g id="users-01" clip-path="url(#clip0_168_2100)">
<g id="Group 1000003693">
<g id="Clip path group">
<mask id="mask0_168_2100" style="mask-type:luminance" maskUnits="userSpaceOnUse" x="5" y="13" width="19" height="10">
<g id="a181990a85">
<path id="Vector" d="M5.55994 13.6314H5.45994V13.7314V22.6229V22.7229H5.55994H23.7429H23.8429V22.6229V13.7314V13.6314H23.7429H5.55994Z" fill="white" stroke="white" stroke-width="0.2"/>
</g>
</mask>
<g mask="url(#mask0_168_2100)">
<g id="Group">
<path id="Vector_2" d="M7.58746 21.2641L7.5875 21.2641C14.0422 21.7373 15.8597 21.1055 16.0594 21.0252L22.4096 16.7081C22.7127 16.5016 22.8938 16.1592 22.8938 15.7916C22.8938 15.5785 22.8318 15.3705 22.7155 15.1903C22.5486 14.9336 22.2921 14.7619 21.9915 14.7062C21.6909 14.6504 21.3899 14.7187 21.1429 14.8983L16.7522 18.0957L16.7511 18.0965L16.7511 18.0965L16.7426 18.1026L16.7377 18.1061L16.7327 18.1099L16.7326 18.1097C16.5135 18.2533 16.2187 18.1928 16.0753 17.9731C15.9343 17.758 15.9902 17.4704 16.1994 17.3241L20.5853 14.1299C20.5853 14.1299 20.5853 14.1299 20.5853 14.1299C21.0445 13.7954 21.6056 13.668 22.164 13.7715L22.1641 13.7715C22.7224 13.8755 23.2012 14.1958 23.5101 14.6727C23.7273 15.0067 23.8417 15.3938 23.8417 15.7916C23.8417 16.4741 23.5059 17.1106 22.9424 17.494L22.9424 17.494L16.5594 21.8334C16.5592 21.8336 16.5589 21.8338 16.5586 21.8339C16.5456 21.8431 16.5319 21.8515 16.5177 21.859C16.3687 21.9398 15.381 22.3918 11.8905 22.3918C10.7305 22.3918 9.29419 22.3419 7.51855 22.2115C7.34948 22.1998 7.17639 22.2239 7.02015 22.2824L7.01986 22.2825L6.17535 22.5954C6.17527 22.5955 6.17519 22.5955 6.1751 22.5955C6.12076 22.6161 6.06542 22.6256 6.01029 22.6256C5.8174 22.6256 5.63609 22.5069 5.56563 22.3147C5.47489 22.0692 5.60013 21.7958 5.84584 21.7048L7.58746 21.2641ZM7.58746 21.2641C7.27913 21.2417 6.97706 21.2848 6.68975 21.3917L5.84591 21.7048L7.58746 21.2641Z" fill="#667085" stroke="#667085" stroke-width="0.2"/>
</g>
</g>
</g>
<path id="Vector_3" d="M16.8972 17.9215C17.1937 17.3172 17.1285 16.7048 16.7129 16.1632C16.3009 15.626 15.6408 15.3067 14.9485 15.3067H10.5618C10.1024 15.3067 9.66357 15.2151 9.25708 15.0345L9.25701 15.0345C8.70028 14.7877 7.71012 14.4564 6.5741 14.5652C5.43357 14.6745 4.15551 15.2268 3.02935 16.7308L3.02923 16.731C2.8726 16.941 2.91475 17.2386 3.12458 17.3957C3.33397 17.5536 3.63103 17.5106 3.78846 17.3012L3.78859 17.301C4.68712 16.1005 5.67479 15.6301 6.57408 15.5173C7.47735 15.4041 8.30269 15.6504 8.87321 15.9033L8.91374 15.8119L8.87321 15.9033C9.40202 16.1377 9.97041 16.2569 10.5618 16.2569H14.9485C15.3507 16.2569 15.7289 16.4398 15.9609 16.7422C16.0609 16.8727 16.1133 16.9953 16.1266 17.1157C16.1398 17.2357 16.115 17.3628 16.0454 17.5044L16.0453 17.5046C16.0108 17.5753 15.9651 17.6496 15.908 17.7247L15.9077 17.7251C15.6719 18.0379 15.2891 18.2265 14.8831 18.2265H11.1823C10.9204 18.2265 10.7078 18.4392 10.7078 18.7016C10.7078 18.9633 10.9202 19.1767 11.1823 19.1767H14.8831C15.5835 19.1767 16.2495 18.8488 16.6642 18.2982C16.7579 18.1745 16.8367 18.0474 16.8972 17.9215ZM16.8972 17.9215C16.8973 17.9214 16.8973 17.9213 16.8974 17.9212L16.8072 17.8779L16.897 17.9219C16.8971 17.9218 16.8971 17.9217 16.8972 17.9215Z" fill="#667085" stroke="#667085" stroke-width="0.2"/>
<path id="Vector_4" d="M0.979922 17.3464L0.979954 17.3463C1.10666 16.9786 1.36856 16.6824 1.71715 16.5122L1.71721 16.5121L2.09346 16.3287C2.09346 16.3287 2.09347 16.3286 2.09347 16.3286C2.81363 15.9773 3.68507 16.2789 4.03565 17.0006L0.979922 17.3464ZM0.979922 17.3464C0.853847 17.7134 0.877449 18.109 1.04707 18.4582L3.58425 23.6813C3.58426 23.6813 3.58426 23.6813 3.58426 23.6813C3.83549 24.1987 4.35405 24.5 4.89273 24.5C5.10613 24.5 5.32261 24.4527 5.52645 24.3533L5.52649 24.3532L5.90212 24.1698C6.25137 23.9995 6.51324 23.7027 6.63994 23.3357L6.63999 23.3355C6.76607 22.9685 6.74244 22.5729 6.57287 22.2232L6.57284 22.2232M0.979922 17.3464L6.57284 22.2232M6.57284 22.2232L4.03565 17.0006L6.57284 22.2232ZM2.1324 17.3664L2.13257 17.3663L2.50786 17.183C2.50792 17.1829 2.50799 17.1829 2.50805 17.1829C2.57932 17.1485 2.65467 17.1321 2.72833 17.1321C2.9157 17.1321 3.09568 17.2367 3.18246 17.4161L3.18252 17.4162L5.71972 22.6394L5.71973 22.6394C5.77875 22.7608 5.78697 22.8978 5.74291 23.0256C5.69886 23.1534 5.60823 23.2561 5.48676 23.3157C5.48672 23.3157 5.48668 23.3157 5.48665 23.3157L5.11119 23.4985L5.11101 23.4986C4.86176 23.6206 4.55917 23.5161 4.43676 23.2656C4.43674 23.2656 4.43673 23.2656 4.43671 23.2655L1.9002 18.0426L1.90004 18.0423C1.84061 17.921 1.83236 17.7841 1.87642 17.6563L1.87646 17.6562C1.92055 17.5278 2.01117 17.4253 2.1324 17.3664Z" fill="#667085" stroke="#667085" stroke-width="0.2"/>
<path id="Vector_5" d="M16.9503 13.7246L16.9499 13.7244L13.9389 12.1374L10.9279 13.7244L10.9276 13.7246C10.7679 13.8081 10.5743 13.7943 10.4282 13.6878C10.2821 13.5814 10.2097 13.4017 10.2397 13.224L10.2397 13.2237L10.815 9.863L8.37899 7.48289L8.37899 7.48288C8.25003 7.35685 8.20305 7.16786 8.25883 6.9961M16.9503 13.7246L8.35394 7.02699M16.9503 13.7246C17.0189 13.7604 17.095 13.7788 17.1702 13.7788C17.269 13.7788 17.3667 13.748 17.449 13.6878C17.5957 13.5814 17.6681 13.4017 17.6381 13.224L17.638 13.2237L17.0628 9.863L19.4988 7.48289L19.4988 7.48288M16.9503 13.7246L19.4988 7.48288M8.25883 6.9961L8.35394 7.02699M8.25883 6.9961C8.25882 6.99614 8.25881 6.99618 8.2588 6.99622L8.35394 7.02699M8.25883 6.9961C8.31456 6.82395 8.46329 6.69851 8.6417 6.67275M8.35394 7.02699C8.39794 6.89095 8.51545 6.79197 8.65611 6.77171M8.6417 6.67275L8.65611 6.77171M8.6417 6.67275C8.64175 6.67274 8.64181 6.67274 8.64186 6.67273M8.6417 6.67275L8.64186 6.67273M8.65611 6.77171L8.64186 6.67273M8.65611 6.77171L8.64186 6.67273M8.64186 6.67273L12.0079 6.1825L13.5134 3.12532M8.64186 6.67273L14.3644 3.12521C14.2845 2.96259 14.1195 2.85984 13.9389 2.85984C13.7583 2.85984 13.5933 2.96259 13.5134 3.12521M13.5134 3.12532L13.6031 3.16939L13.5134 3.12521M13.5134 3.12532L13.5134 3.12521M13.5134 3.12532L13.5134 3.12521M19.4988 7.48288C19.6277 7.35688 19.6747 7.16795 19.619 6.99622M19.4988 7.48288L19.619 6.99622M19.619 6.99622C19.5633 6.82401 19.4145 6.69851 19.2361 6.67275L19.619 6.99622ZM14.1599 11.1806C14.16 11.1806 14.16 11.1806 14.1601 11.1807L16.5407 12.4353L16.0858 9.77732L16.0858 9.77729L16.1843 9.76042L14.1599 11.1806ZM14.1599 11.1806C14.0902 11.1436 14.0139 11.1261 13.9389 11.1261C13.8639 11.1261 13.7875 11.1436 13.7179 11.1806C13.7178 11.1806 13.7178 11.1806 13.7177 11.1807L11.3371 12.4353M14.1599 11.1806L11.3371 12.4353M11.3371 12.4353L11.792 9.77732C11.792 9.77731 11.792 9.7773 11.792 9.77729C11.8184 9.62333 11.7672 9.46576 11.6555 9.35708M11.3371 12.4353L11.6555 9.35708M11.6555 9.35708L11.6557 9.35719L11.5858 9.42873L11.6555 9.35708ZM15.8699 6.1825L14.3644 3.12532L19.2359 6.67273L15.8699 6.1825ZM18.1492 7.47477L16.2222 9.35708L15.4863 7.08659C15.4864 7.0866 15.4865 7.08661 15.4865 7.08662L18.1492 7.47477ZM13.9389 4.40878L15.1296 6.82686L12.3912 7.08662L12.3771 6.98763L12.3915 7.08658L12.3915 7.08659C12.546 7.06444 12.6793 6.9667 12.7481 6.82688C12.7481 6.82688 12.7482 6.82687 12.7482 6.82686L13.9389 4.40878ZM9.72855 7.47477L9.63853 7.38684L9.514 7.40499L9.60402 7.49293L9.72855 7.47477Z" fill="#667085" stroke="#667085" stroke-width="0.2"/>
<path id="Vector_6" d="M13.4645 2.11985C13.4645 2.38222 13.677 2.59496 13.939 2.59496C14.2012 2.59496 14.4129 2.38201 14.4129 2.11985V0.775133C14.4129 0.512971 14.2012 0.300024 13.939 0.300024C13.677 0.300024 13.4645 0.512769 13.4645 0.775133V2.11985Z" fill="#667085" stroke="#667085" stroke-width="0.2"/>
<path id="Vector_7" d="M9.94793 2.60905L9.94786 2.60897C9.76312 2.4235 9.76312 2.12306 9.94786 1.93759L9.948 1.93745L9.948 1.93745C10.1334 1.75203 10.4336 1.75181 10.6186 1.93755L10.6186 1.93751L10.5478 2.00816L10.6186 1.93759L11.5679 2.8886L11.568 2.88867C11.7527 3.07412 11.7527 3.37451 11.5681 3.55999M9.94793 2.60905L11.568 3.56006C11.568 3.56004 11.568 3.56001 11.5681 3.55999M9.94793 2.60905L10.8971 3.55992C10.8971 3.55996 10.8971 3.56 10.8972 3.56004M9.94793 2.60905L10.8972 3.56004M11.5681 3.55999C11.4755 3.65329 11.3534 3.69947 11.2326 3.69947C11.1111 3.69947 10.9897 3.65325 10.8972 3.56004M11.5681 3.55999L10.8972 3.56004" fill="#667085" stroke="#667085" stroke-width="0.2"/>
<path id="Vector_8" d="M17.2453 1.97049L17.2453 1.9704C17.4308 1.785 17.7309 1.78477 17.9159 1.97047C18.1013 2.15596 18.1013 2.4565 17.9159 2.64199L17.2453 1.97049ZM17.2453 1.97049L16.2966 2.92149L17.2453 1.97049ZM16.9672 3.59307L17.9159 2.64207L16.2965 2.92158L16.2965 2.92154C16.1111 3.10706 16.1111 3.40767 16.2966 3.59316C16.3888 3.68536 16.5099 3.73243 16.6318 3.73243C16.7531 3.73243 16.8748 3.68541 16.9671 3.59316L16.9672 3.59307Z" fill="#667085" stroke="#667085" stroke-width="0.2"/>
</g>
</g>
<defs>
<clipPath id="clip0_168_2100">
<rect width="24" height="24" fill="white"/>
</clipPath>
</defs>
</svg>
