<svg width="139" height="113" viewBox="0 0 139 113" fill="none" xmlns="http://www.w3.org/2000/svg">
<g id="Clip path group">
<mask id="mask0_0_458" style="mask-type:luminance" maskUnits="userSpaceOnUse" x="0" y="0" width="139" height="112">
<g id="e2ee9e60df">
<path id="Vector" d="M138.747 54.7205L109.271 111.91L0.000210481 57.3291L29.4763 0.139646L138.747 54.7205Z" fill="white"/>
</g>
</mask>
<g mask="url(#mask0_0_458)">
<g id="Group">
<path id="Vector_2" d="M75.6111 94.985C72.7491 93.3448 71.9099 89.702 74.3657 87.2032C75.5996 85.9469 77.0289 85.0186 78.6986 84.4885C80.9433 83.7749 82.9943 82.6207 85.1528 81.7111C87.4622 80.737 89.8534 80.141 92.2808 79.6257C96.5918 78.7085 100.875 77.6753 105.146 76.5838C108.545 75.7143 111.932 74.7439 115.468 74.5599C117.317 74.4632 119.041 75.0875 120.811 75.4105C121.792 75.5896 122.466 76.387 122.914 77.2442C124.154 79.6111 124.676 82.0374 123.123 84.6136C122.375 86.4415 120.825 87.6473 119.144 88.6896C115.378 91.023 111.221 92.3493 106.944 93.3859C103.159 94.3056 99.3796 95.2678 95.4982 95.6246C90.3231 96.097 85.1471 96.5262 79.9411 95.9498C78.4323 95.782 76.9849 95.7715 75.6111 94.985ZM67.6821 64.668C68.8799 63.5911 69.9104 62.3534 71.2925 61.4558C74.8758 59.1285 78.2722 56.55 81.3958 53.6361C83.5578 51.6174 85.4763 49.3768 87.3442 47.0961C89.5102 44.4525 91.2308 41.5898 91.9736 38.2041C93.1851 32.6813 89.1535 29.1964 84.8659 28.3037C82.9503 27.9031 81.6057 29.1008 80.3 30.2521C77.8108 32.4429 75.9608 35.1933 73.8037 37.6718C70.97 40.9297 68.0587 44.1258 65.3293 47.4801C63.3541 49.9047 61.5942 52.4417 60.1441 54.9756C59.4834 56.4375 58.8382 57.7279 57.702 58.5985C56.2184 59.735 55.6272 63.0483 56.6134 64.9692C57.1136 65.9432 57.7718 66.81 58.9511 67.1029C62.3199 67.9398 65.1631 66.9262 67.6821 64.668ZM34.1616 49.3528C34.637 49.5359 35.1019 49.2317 35.5868 49.2584C37.0753 49.3371 38.2425 48.3387 38.2611 46.8885C38.2792 45.4264 38.2464 43.9537 38.1134 42.4985C37.4856 35.6044 35.2458 29.141 32.7139 22.7784C31.709 20.2541 30.411 17.8582 28.1389 16.1309C26.3405 14.7637 24.3114 14.6765 22.4595 15.9812C21.328 16.7785 20.6314 17.9082 19.9264 19.0222C18.9881 20.5052 18.8876 22.0693 19.5356 23.7143C20.0751 25.0813 20.7876 26.3571 21.4728 27.6439C22.7067 29.9682 23.2819 32.5741 24.496 34.882C26.52 38.7299 28.695 42.5002 30.713 46.3565C31.2485 47.381 31.8794 48.4679 33.234 48.8961C33.4863 49.0237 33.8121 49.2177 34.1616 49.3528ZM76.5786 76.1826C79.1578 74.0647 82.3178 72.8095 84.839 70.5919C86.2368 69.3648 87.7793 68.3038 88.48 66.4653C89.3069 65.2081 89.7289 63.8655 88.9059 62.4506C87.9918 60.8783 86.5214 60.4302 84.4418 61.116C79.8763 62.6235 76.1661 65.409 72.9169 68.8592C72.3785 69.4311 71.9208 70.0845 71.3543 70.6276C70.6175 71.3374 70.3044 72.2341 70.3398 73.1585C70.4197 75.2405 71.6827 76.0491 73.8041 76.5871C74.7245 76.8198 75.764 76.8503 76.5786 76.1826ZM45.2305 38.5893C44.125 40.7342 43.6075 42.786 43.5376 45.3708C43.4974 46.802 43.3765 48.2193 43.0895 49.6343C42.5883 52.1205 44.4854 54.3762 46.9899 54.3701C47.1872 54.3699 47.3967 54.4038 47.5787 54.4716C49.1535 55.0641 50.4461 54.4526 50.7705 52.8621C51.3575 49.9844 52.5146 47.296 53.4869 44.5416C54.2096 42.4902 54.7196 40.3952 53.8572 38.2629C53.4312 37.2093 52.8491 36.2044 51.6992 35.8159C49.3585 35.022 46.3967 36.3267 45.2305 38.5893Z" fill="#4D77FF"/>
</g>
</g>
</g>
</svg>
